<svg xmlns="http://www.w3.org/2000/svg" width="133" height="102" viewBox="0 0 133 102" fill="none"><path d="M6.8507 31.6472C5.98599 29.4217 6.36048 26.8642 7.15846 24.7131C7.9973 22.4491 9.45709 20.1906 11.6386 19C11.7476 21.3853 11.0258 23.743 10.2401 25.8679C9.53199 27.7805 8.66319 29.8172 7.23063 31.3978C7.01176 32.5843 6.84185 33.7796 6.72134 34.9805C7.20373 33.7207 7.95786 32.5857 8.92873 31.6582C10.1679 30.4731 12.009 29.5582 13.7371 30.0983C13.2305 32.0316 12.0757 33.885 10.7099 35.1859C9.63412 36.2097 8.21381 37.5202 6.54159 37.5725C6.4735 39.3226 6.51163 41.0561 6.65325 42.7676C6.8902 41.515 7.3954 40.3368 8.12666 39.459C9.13027 38.2519 10.6187 36.7788 12.5183 37.0255C12.4148 38.9822 11.6427 40.9872 10.5683 42.4947C9.71446 43.6922 8.5883 45.2176 6.98824 45.6117C7.24425 47.2929 7.60103 48.9465 8.05449 50.5628C8.05858 49.324 8.3282 48.11 8.86473 47.1344C9.6205 45.7592 10.7984 44.0449 12.7008 43.9099C12.9786 45.8308 12.6014 47.9295 11.8388 49.5982C11.2301 50.9335 10.4171 52.634 8.9369 53.3381C9.55922 55.0785 10.2946 56.7693 11.1375 58.4022C10.842 56.9967 10.8542 55.5126 11.2042 54.1787C11.6876 52.3391 12.886 50.4071 14.8115 49.8463C15.4924 51.8774 15.397 54.1429 15.0021 56.2071C14.6767 57.9061 14.038 59.9028 12.6055 61.0066C13.5438 62.5386 14.5805 64.0065 15.7089 65.401C15.1015 64.0313 14.7992 62.5334 14.9613 61.161C15.1969 59.1629 15.7511 57.0242 17.7692 55.959C18.9131 57.9571 19.1786 60.1991 19.2767 62.4135C19.3543 64.2022 19.0996 66.4097 17.8713 67.8662C19.2312 69.2967 20.6906 70.6267 22.2385 71.8459C21.2321 70.5409 20.5281 69.0086 20.3797 67.4942C20.1686 65.3542 20.2707 62.9992 22.1486 61.4283C23.7527 63.1246 24.7114 65.6229 25.1798 67.7932C25.5952 69.7114 26.0282 71.9823 25.0409 73.8701C27.0517 75.1974 29.1711 76.3481 31.3758 77.3096C29.8016 76.1741 28.5134 74.617 27.8993 73.0103C27.0945 70.902 26.5974 68.3899 28.1634 66.2788C30.2632 67.6403 31.8061 69.9622 33.0221 72.0801C34.0652 73.8963 35.1451 76.4043 34.6086 78.5677C35.8478 78.9921 37.1183 79.3669 38.4188 79.6839L38.3411 80.0077C37.0507 79.692 35.7748 79.3182 34.5173 78.8874C33.6458 81.4918 30.7916 82.353 28.4834 82.732C25.1948 83.2749 21.2798 82.2249 18.4705 80.1124C19.9521 77.9931 22.9765 77.7781 25.2561 77.6155L25.2861 77.6141C27.8776 77.4376 30.4803 77.6804 32.9963 78.3335C30.1499 77.2394 27.4276 75.8397 24.8762 74.1581L24.8394 74.2174C23.4681 76.469 20.7133 76.5558 18.5522 76.4139C15.6176 76.221 12.231 74.4158 10.2714 71.9217C12.1152 70.2832 14.8374 70.7421 16.9481 71.0963L16.959 71.099C19.3134 71.4945 21.8871 72.3585 24.0469 73.6896C23.8398 73.5242 23.639 73.3509 23.445 73.1701C21.3625 71.6691 19.4219 69.9761 17.648 68.1129L17.5867 68.1735C15.8764 69.9139 13.3871 69.4578 11.4452 68.8915C8.8443 68.1336 6.14804 65.8461 4.85438 63.2224C6.85615 62.087 9.25283 63.0226 11.1143 63.7626C13.157 64.5756 15.3208 65.8737 16.9835 67.53C16.8104 67.3094 16.6469 67.0814 16.4932 66.8465C14.9518 65.0859 13.561 63.1958 12.3358 61.1968L12.2745 61.2367C10.3409 62.499 8.14845 61.584 6.41222 60.6855C4.05776 59.466 2.16629 56.7858 1.34788 54.1497C3.4368 53.4732 5.50121 54.8015 7.10535 55.8543C8.85928 57.0049 10.6364 58.6461 11.8579 60.5298C11.7676 60.3432 11.6841 60.1534 11.6073 59.9607C10.4324 57.8864 9.43732 55.713 8.63323 53.4649L8.59238 53.4787L8.5883 53.4814C6.82892 54.1566 4.87072 53.1052 3.59476 51.9519C1.82041 50.3493 0.568959 47.8854 0.276183 45.4781C2.1091 45.2369 3.83716 46.6728 5.01779 47.8964C6.37682 49.3061 7.59694 50.9707 8.34727 52.8214C8.29225 52.6194 8.24501 52.4153 8.20564 52.2095C7.51867 50.0771 7.0036 47.8918 6.66551 45.6751L6.63827 45.6779L6.6301 45.6792C4.77131 45.9934 3.05279 44.5631 2.02467 43.1754C0.583938 41.227 -0.158215 38.5316 0.0283447 36.0884C1.88032 36.2194 3.28973 38.0025 4.20483 39.4438C5.26291 41.114 6.13987 43.0032 6.52525 44.9792C6.51333 44.8215 6.50607 44.6634 6.50346 44.5052C6.21852 42.204 6.12151 39.883 6.21341 37.5656H6.20796C4.31785 37.4967 2.9207 35.7205 2.19897 34.1455C1.16677 31.8911 1.00063 29.0428 1.68968 26.6409C3.49127 27.1536 4.49488 29.244 5.0886 30.8535C5.7722 32.7096 6.24881 34.7339 6.2529 36.7457C6.35325 35.0358 6.55196 33.3333 6.8507 31.6472ZM44.0768 27.4815V35.5428C44.0768 39.0883 40.904 40.7943 36.0943 40.7943C31.6005 40.7943 28.3772 39.1049 28.3772 35.1252V27.4815H32.856V35.1252C32.856 36.5459 34.0625 37.4334 36.2767 37.4334C38.3915 37.4334 39.6484 36.5129 39.6484 35.1418V27.4815H44.0768ZM58.9934 37.115V40.611H46.6151V27.4815H51.0953V37.115H58.9934ZM72.3045 30.7763V27.4829H56.8187V30.7763H62.2889V40.611H66.818V30.7763H72.3045Z" fill="white"></path><path fill-rule="evenodd" clip-rule="evenodd" d="M88.1905 28.8202C88.7856 29.4403 89.0675 30.2919 89.0675 31.4797C89.0675 32.4995 88.8197 33.3703 88.4057 33.9546C87.9427 34.5899 87.2319 35.1259 86.3563 35.2596L90.274 40.6117H85.3486L82.1253 35.9789H78.1095V40.6117H73.6975V27.4822H84.0263C86.0758 27.4822 87.4144 27.9852 88.1905 28.8202ZM84.6214 32.5835C84.7371 32.3823 84.7698 32.115 84.7698 31.8987C84.7698 31.6465 84.7371 31.3791 84.6214 31.2124C84.3899 30.777 83.9269 30.6612 83.2324 30.6612H78.1259V33.052H83.3155C84.0263 33.052 84.4566 32.9184 84.6214 32.5835ZM96.2358 38.1864H103.243L104.383 40.6117H109.16L102.616 27.4822H97.2775L90.353 40.6117H95.0292L96.2358 38.1864ZM101.838 35.243H97.6901L99.3269 32.0819L99.8226 30.8776L100.286 32.0654L101.838 35.243ZM87.718 43.0838C84.9455 43.0838 83.4871 44.4135 83.4871 46.3675C83.4871 48.5723 85.0177 49.6912 87.718 49.6912C90.6907 49.6912 91.9408 48.3946 91.9408 46.3675C91.9408 44.3074 90.53 43.0838 87.718 43.0838ZM87.718 48.0625C86.1398 48.0625 85.6822 47.4052 85.6822 46.3923C85.6822 45.3947 86.1792 44.7388 87.7099 44.7388C89.3848 44.7388 89.7606 45.476 89.7606 46.3923C89.7606 47.3652 89.3045 48.0625 87.718 48.0625Z" fill="white"></path><path d="M79.3773 49.5948V45.8246H75.1954V47.1943H77.4314C77.3984 47.3517 77.3294 47.4989 77.2298 47.6243C76.9983 47.8999 76.3815 48.1424 75.5794 48.1424C74.746 48.1424 74.2095 47.9233 73.9208 47.5829C73.7301 47.3321 73.6171 46.9766 73.6171 46.4392C73.6171 45.8811 73.7288 45.4994 73.9453 45.2486C74.2585 44.8917 74.7869 44.7388 75.5644 44.7388C76.2603 44.7388 76.741 44.9 76.967 45.1025C77.0969 45.2074 77.1938 45.3481 77.2462 45.5077H79.3215C79.3064 45.2445 79.2441 44.9863 79.1376 44.7456C78.6406 43.7246 77.4872 43.1155 75.5236 43.1155C73.8173 43.1155 72.6721 43.6433 72.0375 44.4384C71.6221 44.9813 71.4288 45.662 71.4288 46.424C71.4288 47.2674 71.6535 47.9894 72.0225 48.4676C72.6475 49.2861 73.7615 49.6912 75.1001 49.6912C76.2766 49.6912 77.0868 49.4074 77.5989 48.9788L77.6547 49.5948H79.3773ZM57.5512 45.7433C59.1785 45.9224 59.8743 46.5053 59.8743 47.616C59.8743 48.9623 58.5766 49.6912 56.0206 49.6912C53.6416 49.6912 52.6162 49.0105 52.2227 48.119C52.1476 47.9145 52.0968 47.7017 52.0715 47.4851H54.3783C54.4018 47.6096 54.4541 47.7267 54.5308 47.8268C54.7228 48.0611 55.2594 48.1989 56.1731 48.1989C57.351 48.1989 57.6315 48.0294 57.6315 47.7138C57.6315 47.3721 57.3429 47.3004 56.278 47.1861C55.8531 47.1447 55.1804 47.0813 54.8999 47.0565C52.8641 46.8705 52.111 46.2297 52.111 45.1342C52.111 44.0002 53.4414 43.132 55.8694 43.132C58.0237 43.132 59.026 43.7797 59.4427 44.5927C59.5707 44.8352 59.651 45.1108 59.6742 45.3051H57.3674C57.3552 45.1968 57.3105 45.0948 57.2394 45.013C57.0623 44.7787 56.613 44.6244 55.8122 44.6244C54.682 44.6244 54.3865 44.7622 54.3865 45.0543C54.3865 45.3781 54.7637 45.4512 56.0206 45.589C56.5108 45.6303 57.287 45.7102 57.5512 45.7433Z" fill="white"></path><path fill-rule="evenodd" clip-rule="evenodd" d="M34.5468 43.7735C34.973 44.1139 35.2127 44.6899 35.2127 45.5235C35.2127 46.2056 35.0439 46.7169 34.7238 47.0738C34.2908 47.5754 33.5786 47.8041 32.6485 47.811C32.3599 47.8193 29.8924 47.811 29.8924 47.811V49.5955H27.7381V43.2292H32.6186C33.4833 43.2292 34.141 43.4083 34.5495 43.7735H34.5468ZM32.9536 46.0196C33.025 45.8764 33.0579 45.7167 33.0489 45.5566C33.0489 45.3472 33.008 45.168 32.9372 45.0702C32.8011 44.8676 32.545 44.7712 32.1284 44.7712H29.876V46.3283H32.112C32.5614 46.3283 32.8256 46.2222 32.9536 46.0196ZM43.0972 43.8782C43.3859 44.1786 43.5221 44.592 43.5221 45.168C43.5221 45.6627 43.4023 46.0844 43.2007 46.3669C42.9653 46.7029 42.6078 46.9308 42.2067 47.0007L44.1063 49.5955H41.7191L40.1572 47.3494H38.2099V49.5955H36.0706V43.2292H41.0778C42.0718 43.2292 42.7214 43.4731 43.0972 43.8782ZM41.3678 45.7027C41.4183 45.6002 41.4427 45.4865 41.4386 45.372C41.4463 45.2561 41.4213 45.1405 41.3665 45.0385C41.2548 44.8277 41.0301 44.7712 40.6937 44.7712H38.2181V45.93H40.7332C41.0778 45.93 41.2861 45.8653 41.3665 45.7027H41.3678Z" fill="white"></path><path d="M51.4221 49.5957V48.0138H46.9107V47.187H51.2369V45.6382H46.912V44.8196H51.3663V43.2308H44.7972V49.5957H51.4221ZM67.6719 44.8279V43.2294H60.1645V44.8279H62.8159V49.5957H65.0124V44.8279H67.6719ZM70.5588 43.2308V49.5957H68.3555V43.2294L70.5588 43.2308ZM82.6171 43.2308V49.5957H80.4138V43.2294L82.6171 43.2308ZM100.442 43.2308V47.1388C100.442 48.8571 98.9036 49.6839 96.5723 49.6839C94.3935 49.6839 92.8302 48.8654 92.8302 46.9362V43.2294H95.0022V46.9362C95.0022 47.6252 95.5864 48.0552 96.6608 48.0552C97.6862 48.0552 98.2949 47.6087 98.2949 46.9445V43.2308H100.442ZM109.092 47.617C109.092 46.5063 108.395 45.922 106.769 45.7429C106.26 45.6846 105.749 45.6337 105.238 45.5899C103.98 45.4521 103.603 45.3791 103.603 45.0553C103.603 44.7631 103.9 44.6253 105.03 44.6253C105.831 44.6253 106.28 44.7797 106.456 45.0139C106.527 45.0957 106.572 45.1977 106.584 45.3061H108.892C108.855 45.0565 108.776 44.8152 108.659 44.5923C108.242 43.782 107.242 43.133 105.086 43.133C102.658 43.133 101.327 44.0011 101.327 45.1352C101.327 46.2307 102.082 46.8715 104.116 47.0575L104.247 47.0699L104.465 47.0892L105.494 47.187C106.561 47.3 106.848 47.373 106.848 47.7148C106.848 48.0303 106.569 48.2012 105.391 48.2012C104.477 48.2012 103.941 48.0634 103.747 47.8278C103.671 47.7281 103.619 47.6114 103.596 47.4874H101.288C101.312 47.6486 101.352 47.9091 101.441 48.1199C101.833 49.0115 102.858 49.6922 105.238 49.6922C107.794 49.6922 109.092 48.9619 109.092 47.617Z" fill="white"></path><path fill-rule="evenodd" clip-rule="evenodd" d="M53.0629 52.0311C51.2613 52.0311 50.3121 52.8951 50.3121 54.1656C50.3121 55.5987 51.3062 56.3263 53.0629 56.3263C54.9938 56.3263 55.8068 55.4829 55.8068 54.1656C55.8068 52.8275 54.8903 52.0311 53.0629 52.0311ZM53.0629 55.2666C52.0361 55.2666 51.7393 54.8394 51.7393 54.1807C51.7393 53.5331 52.062 53.1059 53.0574 53.1059C54.1455 53.1059 54.3906 53.5854 54.3906 54.1807C54.3906 54.8146 54.0937 55.2666 53.0629 55.2666Z" fill="white"></path><path d="M43.0416 54.9781C43.0416 54.256 42.5895 53.8757 41.5328 53.76C41.2019 53.7222 40.8705 53.6891 40.5387 53.6608C39.7203 53.5712 39.4752 53.523 39.4752 53.3121C39.4752 53.1233 39.6672 53.0338 40.4012 53.0338C40.9228 53.0338 41.2142 53.133 41.3286 53.2859C41.3752 53.3391 41.4047 53.4055 41.413 53.4761H42.9109C42.8875 53.3138 42.8368 53.1568 42.7611 53.0117C42.4901 52.4853 41.8392 52.0637 40.438 52.0637C38.8611 52.0637 37.9964 52.6286 37.9964 53.3659C37.9964 54.0769 38.4866 54.4931 39.8075 54.6143C39.9913 54.6295 40.4284 54.6722 40.7049 54.6984C41.3966 54.7728 41.5846 54.8196 41.5846 55.0415C41.5846 55.2468 41.4021 55.3584 40.6368 55.3584C40.0431 55.3584 39.6945 55.2675 39.5692 55.1145C39.5193 55.05 39.4852 54.9745 39.4698 54.8941H37.9705C37.9855 54.9988 38.0113 55.1669 38.0685 55.3047C38.3245 55.8834 38.9904 56.3272 40.5374 56.3272C42.1987 56.3272 43.043 55.8531 43.043 54.9767L43.0416 54.9781Z" fill="white"></path><path fill-rule="evenodd" clip-rule="evenodd" d="M32.6448 55.0939C32.6448 55.3778 32.5672 55.6589 32.4106 55.8421C32.1709 56.137 31.7229 56.2638 31.1441 56.2638H27.5151V52.1271H31.0475C31.6099 52.1271 31.9694 52.2649 32.1668 52.4688C32.3438 52.648 32.4228 52.8864 32.4228 53.1551C32.4228 53.4238 32.3602 53.6442 32.224 53.8082C32.0975 53.9563 31.9215 54.052 31.7297 54.0769C32.0118 54.1077 32.2713 54.2474 32.4541 54.4669C32.5835 54.6185 32.6462 54.8514 32.6462 55.0939H32.6448ZM30.8895 53.6442C30.9466 53.5769 30.9767 53.4904 30.9739 53.4017C30.9762 53.3566 30.9684 53.3115 30.9512 53.2698C30.934 53.228 30.9078 53.1907 30.8745 53.1606C30.801 53.0917 30.6662 53.0641 30.4687 53.0641H28.8796V53.7393H30.5041C30.6812 53.7393 30.8173 53.7131 30.8895 53.6442ZM30.6553 55.3254C30.9004 55.3254 31.0461 55.2937 31.1292 55.2152C31.1809 55.1628 31.2027 55.0829 31.2027 54.9837C31.2055 54.9384 31.1992 54.893 31.1839 54.8503C31.1687 54.8076 31.145 54.7686 31.1142 54.7356C31.0352 54.6667 30.9004 54.635 30.6716 54.635H28.8796V55.3254H30.6553Z" fill="white"></path><path d="M37.5485 55.2349V56.2629H33.2399V52.1262H37.5103V53.1596H34.6153V53.6915H37.4273V54.6975H34.6153V55.2349H37.5485ZM48.1102 52.1262V53.1638H46.3808V56.2629H44.9537V53.1638H43.2311V52.1262H48.1102ZM60.5716 52.1262V53.1734H57.7963V53.7591H60.4422V54.7981H57.7963V56.2629H56.3951V52.1262H60.5716ZM67.6281 53.1638V52.1262H62.7476V53.1638H64.4716V56.2629H65.8987V53.1638H67.6281ZM72.9512 52.1262V56.2629H71.5554V54.7609H69.4624V56.2629H68.0666V52.1262H69.4624V53.6337H71.5554V52.1262H72.9512ZM78.0836 56.2615V55.2349H75.1518V54.6975H77.9638V53.6915H75.1518V53.1583H78.0469V52.1248H73.7792V56.2629H78.085L78.0836 56.2615ZM86.7171 52.1262H88.0653L86.5714 56.2629H85.0408C85.0408 56.2629 84.2224 53.7908 84.217 53.7232C84.2129 53.7921 83.389 56.2629 83.389 56.2629H81.8639L80.3333 52.1262H81.8475C81.8475 52.1262 82.734 54.7292 82.734 54.7926C82.734 54.7292 83.5511 52.1262 83.5511 52.1262H85.0149C85.0149 52.1262 85.8375 54.7292 85.8375 54.7926C85.8375 54.7292 86.7171 52.1262 86.7171 52.1262Z" fill="white"></path><path fill-rule="evenodd" clip-rule="evenodd" d="M90.7397 52.0311C88.9381 52.0311 87.9904 52.8951 87.9904 54.1656C87.9904 55.5987 88.9844 56.3263 90.7397 56.3263C92.6721 56.3263 93.4837 55.4829 93.4837 54.1656C93.4837 52.8275 92.5672 52.0311 90.7397 52.0311ZM90.7397 55.2666C89.7143 55.2666 89.4175 54.8394 89.4175 54.1807C89.4175 53.5331 89.7402 53.1059 90.7343 53.1059C91.8237 53.1059 92.0674 53.5854 92.0674 54.1807C92.0674 54.8146 91.7706 55.2666 90.7397 55.2666ZM98.6406 52.5478C98.8272 52.7421 98.9157 53.0108 98.9157 53.3856C98.9157 53.7067 98.8381 53.9809 98.7073 54.1656C98.5544 54.3836 98.3223 54.5313 98.0619 54.5762L99.2956 56.2629H97.7446L96.7287 54.8022H95.4636V56.2629H94.0733V52.1262H97.3279C97.9733 52.1262 98.3955 52.2846 98.6406 52.5478ZM97.5158 53.7329C97.5483 53.6661 97.5642 53.5923 97.5621 53.5179C97.5667 53.4429 97.5506 53.368 97.5158 53.3016C97.4423 53.1638 97.2966 53.1266 97.0773 53.1266H95.4691V53.8803H97.1032C97.3279 53.8803 97.4627 53.839 97.5158 53.7329Z" fill="white"></path><path d="M103.644 56.2624V55.1628H101.154V52.1271H99.7436V56.2638L103.644 56.2624Z" fill="white"></path><path fill-rule="evenodd" clip-rule="evenodd" d="M109.166 54.1169C109.166 54.7604 109.103 55.109 108.916 55.4343C108.634 55.9565 108.078 56.261 107.093 56.261H104.198V52.1271H107.062C108.041 52.1271 108.62 52.4068 108.905 52.885C109.108 53.2074 109.166 53.5492 109.166 54.1183V54.1169ZM106.827 55.2455C107.27 55.2455 107.521 55.1394 107.672 54.9079C107.766 54.7659 107.792 54.4338 107.792 54.1445C107.786 53.8799 107.755 53.6015 107.672 53.4748C107.51 53.2267 107.266 53.1371 106.838 53.1371H105.594V55.2455H106.827Z" fill="white"></path><path d="M53.3053 76.3801H51.1469C51.1469 76.3801 49.7389 80.5458 49.7389 80.6464C49.7389 80.5458 48.4234 76.3815 48.4234 76.3815H46.0812C46.0812 76.3815 44.7739 80.5458 44.7739 80.6464C44.7739 80.5458 43.3577 76.3815 43.3577 76.3815H40.9338L43.3822 82.9986H45.8238C45.8238 82.9986 47.1393 79.0438 47.1474 78.9349C47.157 79.0452 48.4643 83 48.4643 83H50.914L53.3053 76.3801ZM56.2575 82.9986V76.3815H53.9671V82.9986H56.2575ZM65.1702 76.3801V82.9986H62.9369L59.696 79.3153V82.9986H57.5471V76.3815H59.8961L63.0363 79.9808V76.3815L65.1702 76.3801ZM74.0951 82.9986V76.3815H71.9626V79.9808L68.8224 76.3815H66.472V82.9986H68.6222V79.3153L71.8632 82.9986H74.0951ZM82.2887 81.3547V82.9986H75.3983V76.3815H82.2302V78.0337H77.5975V78.8853H82.0967V80.4948H77.5975V81.3547H82.2887Z" fill="white"></path><path fill-rule="evenodd" clip-rule="evenodd" d="M91.0952 78.3961C91.0952 77.7967 90.9535 77.3668 90.6539 77.0554C90.2618 76.6337 89.5877 76.3801 88.5541 76.3801H83.3468V82.9986H85.5719V80.6657H87.5968L89.2214 83H91.7039L89.7293 80.3033C90.1461 80.2299 90.5175 79.9933 90.7629 79.6446C90.9699 79.3497 91.0952 78.9101 91.0952 78.3961ZM88.9286 78.607C88.933 78.7264 88.9072 78.8449 88.8537 78.9515C88.7707 79.121 88.5541 79.1885 88.196 79.1885H85.5801V77.9827H88.1538C88.5038 77.9827 88.738 78.042 88.8537 78.2611C88.9104 78.3664 88.9364 78.4873 88.9286 78.607Z" fill="white"></path><path d="M46.6531 64.7044L45.7489 61.8906L44.8447 64.7044H41.9211L44.2864 66.4435L43.3836 69.2573L45.7489 67.5183L48.1143 69.2573L47.2114 66.4435L49.5768 64.7044H46.6531ZM56.1813 61.8878L57.1032 64.7031H60.0854L57.6724 66.4421L58.5943 69.2559L56.1799 67.5169L53.7669 69.2559L54.6888 66.4421L52.2744 64.7031H55.258L56.1813 61.8878ZM67.4511 64.7031L66.5292 61.8878L65.6073 64.7031H62.6237L65.0367 66.4421L64.1148 69.2559L66.5292 67.5169L68.9436 69.2559L68.0217 66.4421L70.4347 64.7031H67.4511ZM76.8785 61.8878L77.8004 64.7031H80.784L78.3696 66.4421L79.2915 69.2559L76.8785 67.5169L74.4641 69.2559L75.386 66.4421L72.973 64.7031H75.9552L76.8785 61.8878ZM88.2137 64.7031L87.3095 61.8878L86.4053 64.7031H83.4816L85.847 66.4421L84.9441 69.2559L87.3095 67.5169L89.6748 69.2559L88.772 66.4421L91.1374 64.7031H88.2137ZM126.149 31.7085C127.014 29.4844 126.638 26.9269 125.842 24.7744C125.003 22.5104 123.543 20.2519 121.361 19.0613C121.252 21.448 121.973 23.8043 122.76 25.9306C123.468 27.8419 124.335 29.8785 125.769 31.4591C125.99 32.6579 126.159 33.8513 126.277 35.0405C125.795 33.7812 125.042 32.6467 124.071 31.7195C122.833 30.5344 120.991 29.6195 119.263 30.1596C119.77 32.0929 120.923 33.9477 122.29 35.2472C123.366 36.271 124.786 37.5829 126.458 37.6338C126.528 39.3839 126.488 41.1188 126.345 42.8289C126.11 41.5776 125.605 40.3981 124.873 39.5217C123.87 38.3146 122.381 36.8415 120.482 37.0882C120.585 39.0449 121.357 41.0499 122.432 42.556C123.284 43.7549 124.412 45.2803 126.012 45.6744C125.757 47.345 125.401 48.998 124.946 50.6241C124.941 49.3853 124.672 48.1713 124.135 47.1957C123.379 45.8205 122.202 44.1063 120.299 43.9712C120.02 45.8921 120.399 47.9908 121.161 49.6609C121.77 50.9948 122.583 52.6966 124.063 53.3994C123.443 55.1361 122.707 56.8285 121.861 58.4649C122.158 57.058 122.146 55.5739 121.796 54.24C121.312 52.4004 120.114 50.4684 118.189 49.9076C117.508 51.9387 117.602 54.2042 117.998 56.2684C118.323 57.9674 118.962 59.9642 120.395 61.0679C119.456 62.6007 118.419 64.0691 117.29 65.4637C117.898 64.094 118.199 62.5947 118.037 61.2223C117.802 59.2242 117.248 57.0869 115.231 56.0217C114.086 58.0198 113.82 60.2604 113.723 62.4749C113.644 64.2662 113.899 66.4724 115.129 67.9289C113.769 69.3584 112.31 70.6879 110.763 71.9072C111.768 70.6022 112.472 69.0713 112.62 67.5569C112.831 65.4169 112.729 63.0605 110.851 61.491C109.247 63.1859 108.289 65.6856 107.82 67.8545C107.405 69.7727 106.972 72.0436 107.959 73.9315C105.948 75.2588 103.829 76.4095 101.624 77.3709C103.198 76.2368 104.487 74.6783 105.101 73.0716C105.906 70.9633 106.403 68.4512 104.837 66.3415C102.737 67.7016 101.194 70.0235 99.9778 72.1414C98.9347 73.9576 97.8549 76.4656 98.3914 78.629C97.1522 79.0548 95.8817 79.4283 94.5812 79.7466L94.6588 80.0704C95.9493 79.7542 97.2251 79.3799 98.4826 78.9487C99.3542 81.5531 102.208 82.4157 104.517 82.7947C107.805 83.3362 111.722 82.2876 114.529 80.1738C113.047 78.0544 110.023 77.8394 107.744 77.6782L107.714 77.6755C105.122 77.4992 102.52 77.7425 100.004 78.3961C102.85 77.3018 105.572 75.902 108.124 74.2208L108.158 74.276C109.529 76.5303 112.285 76.6185 114.448 76.4752C117.382 76.2823 120.769 74.4771 122.729 71.983C120.885 70.3459 118.163 70.8034 116.052 71.1589L116.041 71.1603C113.687 71.5558 111.114 72.4198 108.954 73.7509C109.161 73.585 109.362 73.4117 109.556 73.2314C111.638 71.7302 113.578 70.0373 115.351 68.1742L115.424 68.2472C117.135 69.9739 119.617 69.5178 121.556 68.9528C124.157 68.1949 126.853 65.9074 128.146 63.2837C126.142 62.1483 123.749 63.0839 121.887 63.8239C119.84 64.6369 117.676 65.9377 116.012 67.5968C116.184 67.3764 116.349 67.149 116.504 66.912C118.046 65.1503 119.438 63.2593 120.664 61.2595L120.717 61.2925L120.731 61.3008C122.663 62.5589 124.853 61.6453 126.588 60.7469C128.942 59.5273 130.835 56.8471 131.652 54.2111C129.563 53.5358 127.5 54.8642 125.896 55.9156C124.139 57.0676 122.361 58.7102 121.141 60.5939C121.231 60.4079 121.315 60.2177 121.393 60.0248C122.568 57.9496 123.563 55.7753 124.367 53.5262L124.409 53.54L124.416 53.5441C126.174 54.2166 128.131 53.1665 129.407 52.0145C131.18 50.4106 132.431 47.9467 132.724 45.538C130.891 45.2982 129.163 46.7341 127.982 47.9577C126.623 49.3688 125.402 51.0348 124.651 52.8854C124.707 52.6842 124.755 52.4789 124.794 52.2708C125.481 50.1384 125.996 47.9531 126.334 45.7364L126.386 45.7433C128.238 46.0465 129.951 44.6216 130.975 43.2367C132.416 41.2896 133.158 38.5929 132.972 36.1497C131.121 36.2807 129.71 38.0638 128.797 39.5065C127.737 41.1767 126.859 43.0673 126.475 45.0447C126.487 44.8862 126.494 44.7277 126.497 44.5679C126.782 42.2667 126.879 39.9456 126.787 37.6283C128.678 37.5594 130.079 35.7832 130.801 34.2082C131.832 31.9538 131.998 29.1041 131.31 26.7036C129.509 27.2149 128.504 29.3053 127.911 30.9148C127.228 32.7709 126.751 34.7952 126.747 36.8084C126.647 35.0985 126.447 33.3947 126.149 31.7085Z" fill="white"></path></svg>