<svg xmlns="http://www.w3.org/2000/svg" width="133" height="102" viewBox="0 0 133 102" fill="none"><path fill-rule="evenodd" clip-rule="evenodd" d="M26.0306 45.3197C26.0306 56.6178 30.6161 66.8469 38.0308 74.2519C45.4442 81.6555 55.6868 86.2349 66.9998 86.2349C78.3128 86.2349 88.5554 81.6555 95.9702 74.2519C103.384 66.8483 107.969 56.6191 107.969 45.3197C107.969 34.0216 103.384 23.7924 95.9702 16.3888C92.2205 12.6441 87.7469 9.62251 82.7769 7.54999C82.7496 7.69024 82.7183 7.8305 82.6842 7.97076C87.5737 10.0215 91.9765 13.0009 95.6702 16.6884C103.007 24.0158 107.545 34.1387 107.545 45.3197C107.545 56.5007 103.006 66.6236 95.6702 73.9509C88.3332 81.2783 78.1969 85.8101 67.0012 85.8101C55.8055 85.8101 45.6692 81.2769 38.3322 73.9509C30.9952 66.6236 26.4574 56.5007 26.4574 45.3197C26.4574 34.1387 30.9952 24.0158 38.3322 16.6884C42.0259 12.9995 46.4287 10.0201 51.3182 7.97076C51.2841 7.8305 51.2527 7.69024 51.2255 7.54999C46.2555 9.62251 41.7818 12.6441 38.0322 16.3888C30.6175 23.7924 26.0306 34.0216 26.0306 45.3197Z" fill="white"></path><path fill-rule="evenodd" clip-rule="evenodd" d="M66.9995 87.2664C78.5974 87.2664 89.0978 82.5713 96.6993 74.9811C104.299 67.3909 109.001 56.9044 109.001 45.3217C109.001 33.739 104.299 23.2525 96.6993 15.661C92.7942 11.7611 88.1215 8.62508 82.9293 6.49809C82.9197 6.60022 82.9088 6.70371 82.8966 6.80583C88.0206 8.91784 92.6306 12.0185 96.4893 15.8721C104.036 23.4078 108.704 33.8208 108.704 45.3217C108.704 56.8227 104.036 67.2343 96.4893 74.7714C88.9423 82.3084 78.517 86.9696 67.0008 86.9696C55.4847 86.9696 45.0593 82.3084 37.5124 74.7714C29.9654 67.2343 25.2981 56.8227 25.2981 45.3217C25.2981 33.8208 29.9667 23.4091 37.5124 15.8721C41.3697 12.0198 45.9811 8.91784 51.1051 6.8072C51.0929 6.70371 51.0819 6.60158 51.0724 6.49945C45.8802 8.62644 41.2088 11.7624 37.3024 15.6624C29.7022 23.2525 25.0009 33.7404 25.0009 45.3231C25.0009 56.9058 29.7022 67.3923 37.3024 74.9825C44.9012 82.5713 55.4015 87.2664 66.9995 87.2664Z" fill="white"></path><path fill-rule="evenodd" clip-rule="evenodd" d="M42.0559 20.4086C35.672 26.7841 31.7233 35.5916 31.7233 45.3197C31.7233 55.0491 35.672 63.8566 42.0559 70.2321C48.4398 76.6076 57.259 80.5511 67.0012 80.5511C76.7434 80.5511 85.5625 76.6076 91.9465 70.2321C98.3304 63.8566 102.279 55.0491 102.279 45.3197C102.279 35.5916 98.3304 26.7827 91.9465 20.4086C88.6222 17.0888 84.6381 14.4293 80.2067 12.6414C80.1481 12.7081 80.0881 12.7735 80.0281 12.8389C84.4622 14.6145 88.4477 17.2671 91.7692 20.5856C98.1081 26.9162 102.028 35.6611 102.028 45.321C102.028 54.981 98.1081 63.7259 91.7692 70.0565C85.4303 76.387 76.6739 80.3019 67.0012 80.3019C57.3299 80.3019 48.5721 76.387 42.2332 70.0565C35.8942 63.7259 31.9742 54.981 31.9742 45.321C31.9742 35.6611 35.8942 26.9162 42.2332 20.5856C45.5546 17.2685 49.5415 14.6145 53.9743 12.8402C53.9129 12.7749 53.8543 12.7081 53.7943 12.6428C49.3643 14.4293 45.3788 17.0888 42.0559 20.4086Z" fill="white"></path><path fill-rule="evenodd" clip-rule="evenodd" d="M27.5101 45.3205C27.5101 56.2115 31.9306 66.0716 39.0767 73.2083C46.2228 80.345 56.096 84.7597 67.0013 84.7597C77.9066 84.7597 87.7797 80.345 94.9258 73.2083C102.072 66.0716 106.492 56.2115 106.492 45.3205C106.492 34.4309 102.072 24.5695 94.9258 17.4327C91.3548 13.8664 87.1034 10.981 82.3829 8.98607C82.308 9.19714 82.2261 9.4082 82.1361 9.61791C86.7693 11.5788 90.9416 14.4125 94.4458 17.9121C101.469 24.9262 105.813 34.6161 105.813 45.3205C105.813 56.0235 101.469 65.7148 94.4458 72.729C87.4224 79.7431 77.7198 84.0815 67.0013 84.0815C56.2841 84.0815 46.5814 79.7431 39.558 72.729C32.5346 65.7148 28.1905 56.0249 28.1905 45.3205C28.1905 34.6175 32.5346 24.9276 39.558 17.9121C43.0622 14.4125 47.2346 11.5788 51.8678 9.61791C51.7778 9.4082 51.696 9.19714 51.621 8.98607C46.9005 10.981 42.6491 13.8678 39.0781 17.4327C31.9292 24.5708 27.5101 34.4309 27.5101 45.3205Z" fill="white"></path><path fill-rule="evenodd" clip-rule="evenodd" d="M29.7012 45.3189C29.7012 55.6053 33.8762 64.918 40.6256 71.6598C47.3749 78.4003 56.7012 82.5698 67.0011 82.5698C77.301 82.5698 86.626 78.4003 93.3767 71.6598C100.126 64.9194 104.301 55.6053 104.301 45.3189C104.301 35.0326 100.126 25.7199 93.3767 18.9781C89.983 15.5888 85.9375 12.849 81.4447 10.9644C81.2538 11.279 81.0452 11.5908 80.8148 11.8972C85.2557 13.73 89.2522 16.4181 92.5968 19.7583C99.1471 26.3 103.198 35.3376 103.198 45.3189C103.198 55.3016 99.1457 64.3379 92.5968 70.8796C86.0466 77.4212 76.997 81.4668 67.0025 81.4668C57.008 81.4668 47.9585 77.4198 41.4082 70.8796C34.8579 64.3379 30.807 55.3016 30.807 45.3189C30.807 35.3376 34.8579 26.3 41.4082 19.7583C44.7529 16.4181 48.7493 13.7287 53.1902 11.8972C52.9598 11.5908 52.7512 11.279 52.5603 10.9644C48.0675 12.8504 44.022 15.5888 40.6283 18.9794C33.8749 25.7199 29.7012 35.0326 29.7012 45.3189Z" fill="white"></path><path fill-rule="evenodd" clip-rule="evenodd" d="M91.142 86.943C89.0122 87.5707 85.8898 89.6637 87.061 92.7847C87.2383 93.2259 87.4265 93.4533 87.4878 93.5446C86.9751 91.9568 87.0119 89.8829 88.794 88.8807C88.0155 90.1852 87.7319 92.112 87.6801 93.6113C90.283 93.0857 90.7098 90.719 91.142 86.943Z" fill="white"></path><path fill-rule="evenodd" clip-rule="evenodd" d="M32.5401 84.4535C32.6287 84.3868 32.8796 84.2315 33.1891 83.8707C35.3039 81.293 33.0228 78.3067 31.2079 77.0281C30.3994 80.7415 30.0408 83.119 32.3356 84.4549C32.7691 83.0183 33.1223 81.1023 32.806 79.6181C34.1708 81.1405 33.5368 83.1149 32.5401 84.4535Z" fill="white"></path><path fill-rule="evenodd" clip-rule="evenodd" d="M36.8569 87.9869C36.936 87.912 37.1691 87.7296 37.4377 87.3374C39.258 84.5445 36.6646 81.8252 34.7216 80.7508C34.3235 84.5296 34.2267 86.933 36.6537 88.0114C36.9292 86.5367 37.071 84.5935 36.5937 83.1529C38.1154 84.5146 37.7009 86.5476 36.8569 87.9869Z" fill="white"></path><path fill-rule="evenodd" clip-rule="evenodd" d="M42.0391 90.3207C43.5431 87.3467 40.6688 84.9256 38.6195 84.0704C38.6372 87.8696 38.8036 90.2689 41.3329 91.0764C41.4447 89.5799 41.3738 87.634 40.7425 86.2533C42.4046 87.4434 42.215 89.5077 41.5319 91.0315C41.6042 90.9471 41.8155 90.7401 42.0391 90.3207Z" fill="white"></path><path fill-rule="evenodd" clip-rule="evenodd" d="M92.6657 91.0764C95.195 90.2689 95.3613 87.871 95.3791 84.0704C93.3311 84.9256 90.4555 87.3467 91.9594 90.3207C92.183 90.7401 92.3957 90.9457 92.4666 91.0301C91.7849 89.5077 91.594 87.442 93.2574 86.2519C92.6248 87.6327 92.5539 89.5799 92.6657 91.0764Z" fill="white"></path><path fill-rule="evenodd" clip-rule="evenodd" d="M46.94 92.7847C48.1098 89.6637 44.9888 87.5707 42.859 86.943C43.2912 90.719 43.718 93.0843 46.3209 93.6113C46.2691 92.112 45.9855 90.1852 45.207 88.8807C46.9904 89.8816 47.0259 91.9554 46.5146 93.5432C46.5745 93.4547 46.7627 93.2259 46.94 92.7847Z" fill="white"></path><path fill-rule="evenodd" clip-rule="evenodd" d="M52.0804 94.7006C52.9039 91.4707 49.5715 89.7304 47.3858 89.3382C48.2285 93.0448 48.9116 95.3502 51.5554 95.5912C51.34 94.1056 50.8478 92.221 49.9315 91.0104C51.8131 91.8111 52.0749 93.87 51.7395 95.5027C51.7899 95.406 51.9522 95.1582 52.0804 94.7006Z" fill="white"></path><path fill-rule="evenodd" clip-rule="evenodd" d="M81.8536 91.2263C79.6379 91.3775 76.1364 92.7446 76.6014 96.044C76.6791 96.5138 76.8127 96.7766 76.8523 96.8787C76.6982 95.2175 77.1836 93.2008 79.1416 92.6098C78.0985 93.7141 77.4031 95.5347 77.0268 96.9877C79.6815 97.0367 80.6128 94.8185 81.8536 91.2263Z" fill="white"></path><path fill-rule="evenodd" clip-rule="evenodd" d="M57.3998 96.044C57.8647 92.7446 54.3619 91.3775 52.1462 91.2263C53.3883 94.8185 54.3182 97.0353 56.9743 96.9863C56.598 95.5334 55.904 93.7128 54.8596 92.6084C56.8175 93.1994 57.3029 95.2161 57.1475 96.8774C57.1884 96.7766 57.322 96.5138 57.3998 96.044Z" fill="white"></path><path fill-rule="evenodd" clip-rule="evenodd" d="M86.6147 89.3383C84.429 89.7305 81.0966 91.4707 81.9202 94.7007C82.0483 95.1582 82.2092 95.4061 82.261 95.5027C81.9256 93.8687 82.1888 91.8112 84.069 91.0105C83.1528 92.2224 82.6605 94.107 82.4451 95.5913C85.0903 95.3502 85.7734 93.0462 86.6147 89.3383Z" fill="white"></path><path fill-rule="evenodd" clip-rule="evenodd" d="M117.074 50.1309C117.548 50.1772 117.838 50.1146 117.947 50.1023C116.3 49.8259 114.473 48.84 114.402 46.7988C115.204 48.0897 116.787 49.2267 118.096 49.9621C118.825 47.4116 116.918 45.945 113.76 43.8248C113.337 46.0022 113.763 49.7333 117.074 50.1309Z" fill="white"></path><path fill-rule="evenodd" clip-rule="evenodd" d="M97.3479 88.0101C99.7749 86.9316 99.6781 84.5309 99.2799 80.7508C97.337 81.8238 94.7436 84.5432 96.5639 87.336C96.8325 87.7282 97.0656 87.9107 97.1447 87.9856C96.2993 86.5462 95.8862 84.5146 97.4079 83.1501C96.9306 84.5935 97.0724 86.5353 97.3479 88.0101Z" fill="white"></path><path fill-rule="evenodd" clip-rule="evenodd" d="M116.413 55.5709C116.879 55.6689 117.174 55.639 117.283 55.6376C115.675 55.1828 113.968 54.0036 114.12 51.9678C114.775 53.3377 116.225 54.6409 117.447 55.5151C118.45 53.0599 116.714 51.3932 113.806 48.9421C113.149 51.0596 113.164 54.8152 116.413 55.5709Z" fill="white"></path><path fill-rule="evenodd" clip-rule="evenodd" d="M113.336 66.0713C113.77 66.2674 114.065 66.3028 114.171 66.3246C112.701 65.5334 111.29 64.0124 111.88 62.057C112.222 63.5358 113.354 65.1222 114.356 66.2402C115.868 64.0601 114.536 62.0584 112.229 59.0354C111.129 60.9595 110.329 64.6293 113.336 66.0713Z" fill="white"></path><path fill-rule="evenodd" clip-rule="evenodd" d="M28.6364 80.4702C28.7304 80.4143 28.9977 80.2863 29.3454 79.9622C31.7274 77.6296 29.7872 74.4133 28.1237 72.944C26.9156 76.5484 26.2993 78.8729 28.4332 80.4497C29.0222 79.069 29.5813 77.2034 29.4299 75.6933C30.6189 77.3546 29.7735 79.2487 28.6364 80.4702Z" fill="white"></path><path fill-rule="evenodd" clip-rule="evenodd" d="M122.168 46.9262C122.03 48.9647 120.17 49.8893 118.515 50.1113C118.624 50.129 118.911 50.1998 119.386 50.1685C122.711 49.8811 123.259 46.165 122.908 43.9754C119.681 45.9894 117.727 47.3933 118.371 49.9656C119.705 49.2738 121.325 48.1899 122.168 46.9262Z" fill="white"></path><path fill-rule="evenodd" clip-rule="evenodd" d="M115.161 60.9058C115.614 61.0528 115.91 61.0556 116.019 61.0665C114.472 60.4401 112.902 59.0811 113.276 57.0739C113.778 58.5065 115.077 59.9608 116.195 60.9616C117.46 58.6304 115.918 56.7853 113.295 54.0319C112.41 56.0649 112.015 59.8001 115.161 60.9058Z" fill="white"></path><path fill-rule="evenodd" clip-rule="evenodd" d="M101.665 84.4549C103.96 83.119 103.601 80.7428 102.793 77.0281C100.978 78.3067 98.6981 81.293 100.812 83.8707C101.121 84.2315 101.372 84.3868 101.461 84.4535C100.464 83.1149 99.8298 81.1405 101.195 79.6181C100.877 81.1037 101.23 83.0196 101.665 84.4549Z" fill="white"></path><path fill-rule="evenodd" clip-rule="evenodd" d="M105.569 80.4484C107.704 78.8715 107.088 76.5471 105.878 72.944C104.215 74.4119 102.273 77.6296 104.656 79.9609C105.004 80.285 105.27 80.413 105.365 80.4688C104.228 79.2473 103.383 77.3532 104.573 75.6919C104.42 77.2034 104.981 79.069 105.569 80.4484Z" fill="white"></path><path fill-rule="evenodd" clip-rule="evenodd" d="M110.955 71.0104C111.366 71.2528 111.653 71.3195 111.757 71.3536C110.383 70.4072 109.145 68.7405 109.946 66.8613C110.125 68.3687 111.078 70.0681 111.952 71.2896C113.695 69.2865 112.587 67.1514 110.625 63.8955C109.32 65.6889 108.123 69.2484 110.955 71.0104Z" fill="white"></path><path fill-rule="evenodd" clip-rule="evenodd" d="M109.01 76.043C110.96 74.2428 110.094 71.9987 108.499 68.5495C107.006 70.1903 105.427 73.5987 108.05 75.6576C108.431 75.9436 108.71 76.0402 108.81 76.0865C107.546 74.9958 106.498 73.2038 107.501 71.4241C107.514 72.941 108.275 74.7357 109.01 76.043Z" fill="white"></path><path fill-rule="evenodd" clip-rule="evenodd" d="M112.201 71.409C113.702 71.345 115.629 71.0468 116.93 70.2597C115.94 72.0477 113.865 72.1008 112.271 71.601C112.362 71.6623 112.593 71.8475 113.036 72.0204C116.169 73.1656 118.24 70.031 118.852 67.8985C115.074 68.3602 112.708 68.8068 112.201 71.409Z" fill="white"></path><path fill-rule="evenodd" clip-rule="evenodd" d="M71.525 98.0577C72.4099 99.271 73.7257 100.708 75.1028 101.352C73.0644 101.519 71.8699 99.8238 71.4022 98.2225C71.4022 98.3314 71.375 98.6255 71.4759 99.0899C72.2585 102.329 76.0191 102.314 78.1352 101.64C75.6577 98.7576 73.9752 97.0364 71.525 98.0577Z" fill="white"></path><path fill-rule="evenodd" clip-rule="evenodd" d="M77.0935 97.2548C78.1053 98.3632 79.571 99.6486 81.0095 100.139C79.0024 100.528 77.6294 98.9719 76.9899 97.4318C77.0022 97.5394 77.0076 97.8362 77.1576 98.2856C78.2893 101.42 82.0253 100.995 84.0556 100.097C81.2781 97.4999 79.4183 95.9734 77.0935 97.2548Z" fill="white"></path><path fill-rule="evenodd" clip-rule="evenodd" d="M74.0673 93.6648C72.9097 94.6493 72.0207 96.3814 71.4875 97.7853C74.1218 98.123 75.289 96.0205 76.9143 92.5849C74.6959 92.4937 71.0649 93.4714 71.1671 96.8021C71.193 97.2774 71.2966 97.5538 71.3253 97.6586C71.3539 95.9905 72.0575 94.0392 74.0673 93.6648Z" fill="white"></path><path fill-rule="evenodd" clip-rule="evenodd" d="M82.5408 95.8504C83.6684 96.843 85.2651 97.961 86.7486 98.2919C84.796 98.8979 83.2607 97.4994 82.4576 96.0383C82.4808 96.1445 82.519 96.4386 82.718 96.8703C84.1852 99.8619 87.853 99.034 89.7728 97.9188C86.7281 95.6379 84.7115 94.3225 82.5408 95.8504Z" fill="white"></path><path fill-rule="evenodd" clip-rule="evenodd" d="M67.0005 96.6679C66.1988 96.6679 65.5484 97.3174 65.5484 98.1181C65.5484 98.9188 66.1988 99.5683 67.0005 99.5683C67.8022 99.5683 68.4526 98.9188 68.4526 98.1181C68.4526 97.3174 67.8036 96.6679 67.0005 96.6679Z" fill="white"></path><path fill-rule="evenodd" clip-rule="evenodd" d="M58.8974 101.352C60.2746 100.708 61.5904 99.2711 62.4753 98.0578C60.025 97.0365 58.3425 98.7564 55.865 101.64C57.9812 102.313 61.7417 102.329 62.5244 99.09C62.6253 98.6257 62.598 98.3315 62.598 98.2226C62.1303 99.824 60.9359 101.521 58.8974 101.352Z" fill="white"></path><path fill-rule="evenodd" clip-rule="evenodd" d="M56.8415 98.2877C56.9928 97.837 56.9983 97.5415 57.0092 97.4325C56.3697 98.974 54.9966 100.53 52.9896 100.14C54.4281 99.6494 55.8938 98.364 56.9056 97.2555C54.5808 95.9728 52.721 97.4993 49.9435 100.097C51.9738 100.997 55.7111 101.422 56.8415 98.2877Z" fill="white"></path><path fill-rule="evenodd" clip-rule="evenodd" d="M87.8042 93.8585C89.0327 94.7218 90.7425 95.66 92.2533 95.8261C90.3771 96.6418 88.7 95.419 87.7415 94.0532C87.7769 94.1567 87.8465 94.444 88.0919 94.8512C89.8767 97.6658 93.4327 96.443 95.2189 95.1249C91.9424 93.1912 89.7949 92.1046 87.8042 93.8585Z" fill="white"></path><path fill-rule="evenodd" clip-rule="evenodd" d="M51.2827 96.868C51.4818 96.4363 51.52 96.1436 51.5432 96.036C50.7387 97.4985 49.2048 98.8956 47.2522 98.2896C48.7357 97.9587 50.3337 96.8408 51.46 95.8481C49.2893 94.3202 47.274 95.6356 44.228 97.9151C46.1478 99.0317 49.8156 99.861 51.2827 96.868Z" fill="white"></path><path fill-rule="evenodd" clip-rule="evenodd" d="M57.0858 92.5845C58.7111 96.0201 59.8796 98.1226 62.5139 97.7849C61.9808 96.381 61.0918 94.6489 59.9342 93.6644C61.9453 94.0389 62.6475 95.9915 62.6748 97.6583C62.7034 97.5534 62.8084 97.277 62.833 96.8018C62.9352 93.4724 59.3042 92.4947 57.0858 92.5845Z" fill="white"></path><path fill-rule="evenodd" clip-rule="evenodd" d="M25.1889 76.0865C25.2885 76.0402 25.568 75.9436 25.9484 75.6576C28.5718 73.5987 26.9929 70.1903 25.4998 68.5495C23.9045 72.0001 23.0387 74.2428 24.9885 76.0443C25.7234 74.7357 26.4843 72.9424 26.4979 71.4254C27.5001 73.2052 26.4529 74.9944 25.1889 76.0865Z" fill="white"></path><path fill-rule="evenodd" clip-rule="evenodd" d="M114.617 66.3342C116.102 66.1081 117.985 65.6016 119.191 64.677C118.403 66.5616 116.346 66.8407 114.707 66.518C114.804 66.5684 115.053 66.7277 115.513 66.8516C118.752 67.6482 120.469 64.3066 120.844 62.121C117.139 62.9912 114.836 63.6911 114.617 66.3342Z" fill="white"></path><path fill-rule="evenodd" clip-rule="evenodd" d="M109.246 76.1901C110.744 76.2895 112.693 76.2037 114.071 75.5624C112.893 77.2318 110.823 77.0589 109.293 76.3889C109.377 76.4597 109.587 76.6681 110.008 76.89C112.998 78.3688 115.399 75.4793 116.239 73.4258C112.435 73.4721 110.034 73.6573 109.246 76.1901Z" fill="white"></path><path fill-rule="evenodd" clip-rule="evenodd" d="M117.722 55.5493C119.122 55.0059 120.851 54.1045 121.827 52.9402C121.467 54.9515 119.519 55.6691 117.85 55.7099C117.956 55.7372 118.234 55.8393 118.709 55.8611C122.044 55.9374 122.994 52.303 122.887 50.0888C119.457 51.7392 117.362 52.9212 117.722 55.5493Z" fill="white"></path><path fill-rule="evenodd" clip-rule="evenodd" d="M92.8162 91.3079C94.132 92.0323 95.9332 92.7785 97.4535 92.7785C95.6782 93.793 93.877 92.7609 92.774 91.5081C92.8203 91.6061 92.9212 91.8853 93.2089 92.2638C95.291 94.8674 98.6916 93.2633 100.324 91.76C96.8577 90.1927 94.6038 89.347 92.8162 91.3079Z" fill="white"></path><path fill-rule="evenodd" clip-rule="evenodd" d="M97.5219 88.2266C98.9086 88.804 100.781 89.3487 102.293 89.1839C100.639 90.3863 98.7354 89.5557 97.5028 88.4295C97.5587 88.5235 97.6896 88.789 98.0182 89.1335C100.372 91.4947 103.577 89.5311 105.035 87.8576C101.416 86.6784 99.0845 86.0833 97.5219 88.2266Z" fill="white"></path><path fill-rule="evenodd" clip-rule="evenodd" d="M105.785 80.6231C107.265 80.8859 109.21 81.0125 110.65 80.525C109.296 82.0556 107.258 81.658 105.811 80.8273C105.887 80.9063 106.072 81.1378 106.466 81.402C109.276 83.198 111.978 80.5863 113.039 78.6377C109.251 78.2673 106.846 78.191 105.785 80.6231Z" fill="white"></path><path fill-rule="evenodd" clip-rule="evenodd" d="M101.862 84.6485C103.303 85.0707 105.224 85.4084 106.709 85.0815C105.197 86.4569 103.214 85.8373 101.866 84.8541C101.933 84.9413 102.091 85.1905 102.455 85.4969C105.052 87.5871 108.025 85.2858 109.29 83.4638C105.564 82.6877 103.18 82.3472 101.862 84.6485Z" fill="white"></path><path fill-rule="evenodd" clip-rule="evenodd" d="M116.465 61.0273C117.917 60.6405 119.733 59.9311 120.831 58.8812C120.254 60.8407 118.239 61.3418 116.574 61.2002C116.676 61.2397 116.941 61.3704 117.411 61.4439C120.719 61.8838 122.06 58.3747 122.195 56.1605C118.607 57.4269 116.394 58.3747 116.465 61.0273Z" fill="white"></path><path fill-rule="evenodd" clip-rule="evenodd" d="M15.2931 55.8611C15.7676 55.8393 16.0457 55.7385 16.1521 55.7099C14.4818 55.6705 12.5333 54.9515 12.1734 52.9416C13.1496 54.1059 14.8786 55.0073 16.2789 55.5506C16.6389 52.9225 14.5418 51.7406 11.1153 50.0888C11.0062 52.303 11.9566 55.9374 15.2931 55.8611Z" fill="white"></path><path fill-rule="evenodd" clip-rule="evenodd" d="M18.488 66.8516C18.9475 66.7277 19.197 66.5684 19.2938 66.518C17.6549 66.8407 15.5974 66.5616 14.8093 64.677C16.0146 65.6016 17.899 66.1081 19.3838 66.3342C19.1643 63.6911 16.8613 62.9912 13.1567 62.121C13.5317 64.3066 15.2483 67.6482 18.488 66.8516Z" fill="white"></path><path fill-rule="evenodd" clip-rule="evenodd" d="M16.5901 61.4416C17.0592 61.3695 17.325 61.2374 17.4273 61.1979C15.7638 61.3409 13.7472 60.8398 13.1705 58.8789C14.2681 59.9301 16.0856 60.6382 17.5364 61.0249C17.6073 58.3737 15.3943 57.426 11.8069 56.1582C11.9406 58.3723 13.2823 61.8815 16.5901 61.4416Z" fill="white"></path><path fill-rule="evenodd" clip-rule="evenodd" d="M20.9653 72.0204C21.4084 71.8475 21.6388 71.6623 21.7302 71.601C20.1363 72.1008 18.0596 72.0477 17.0711 70.2597C18.3705 71.0482 20.2985 71.345 21.7997 71.409C21.2925 68.8054 18.9268 68.3602 15.1499 67.8985C15.7608 70.031 17.8319 73.1656 20.9653 72.0204Z" fill="white"></path><path fill-rule="evenodd" clip-rule="evenodd" d="M31.5473 85.4975C31.9114 85.1911 32.0696 84.9406 32.1364 84.8548C30.7879 85.8393 28.8053 86.4575 27.2932 85.0822C28.7781 85.409 30.6992 85.0713 32.1405 84.6492C30.8206 82.3479 28.4372 82.687 24.7135 83.4645C25.9774 85.2878 28.9499 87.5891 31.5473 85.4975Z" fill="white"></path><path fill-rule="evenodd" clip-rule="evenodd" d="M23.9934 76.89C24.4147 76.6694 24.6233 76.4597 24.7079 76.3889C23.178 77.0575 21.1082 77.2318 19.9302 75.5624C21.3087 76.2037 23.2571 76.2895 24.7556 76.1901C23.9675 73.6573 21.5677 73.4735 17.7622 73.4258C18.6021 75.4793 21.0032 78.3688 23.9934 76.89Z" fill="white"></path><path fill-rule="evenodd" clip-rule="evenodd" d="M40.7892 92.2634C41.0783 91.8849 41.1778 91.6071 41.2242 91.5077C40.1211 92.7604 38.3199 93.7926 36.5446 92.7781C38.0649 92.7768 39.8675 92.0319 41.1819 91.3075C39.3943 89.3466 37.1405 90.1936 33.6731 91.7596C35.3079 93.2629 38.7085 94.867 40.7892 92.2634Z" fill="white"></path><path fill-rule="evenodd" clip-rule="evenodd" d="M27.5343 81.3988C27.9297 81.1333 28.1138 80.9031 28.1888 80.8241C26.7421 81.6548 24.7037 82.0538 23.3497 80.5219C24.7896 81.0093 26.7353 80.8827 28.2147 80.6199C27.1553 78.1892 24.7487 78.2655 20.9609 78.6345C22.0217 80.5831 24.7242 83.1949 27.5343 81.3988Z" fill="white"></path><path fill-rule="evenodd" clip-rule="evenodd" d="M19.644 66.2415C20.6461 65.1236 21.7778 63.5372 22.1201 62.0584C22.7118 64.0138 21.2992 65.5362 19.8294 66.326C19.9357 66.3042 20.2303 66.2688 20.6639 66.0727C23.6717 64.6306 22.8714 60.9622 21.7697 59.0354C19.464 62.0584 18.1305 64.0614 19.644 66.2415Z" fill="white"></path><path fill-rule="evenodd" clip-rule="evenodd" d="M22.0482 71.2863C22.9222 70.0662 23.8739 68.3655 24.0539 66.858C24.8556 68.7372 23.6176 70.4039 22.2431 71.3503C22.3481 71.3163 22.6358 71.2495 23.0449 71.0072C25.8769 69.2451 24.6797 65.6856 23.3748 63.8909C21.4128 67.1494 20.307 69.2846 22.0482 71.2863Z" fill="white"></path><path fill-rule="evenodd" clip-rule="evenodd" d="M17.8046 60.9616C18.9227 59.9594 20.2221 58.5051 20.7239 57.0739C21.0975 59.0811 19.5295 60.4401 17.9805 61.0665C18.0896 61.0556 18.3855 61.0528 18.8382 60.9058C21.9851 59.8001 21.5897 56.0663 20.7062 54.0319C18.0828 56.7853 16.5393 58.629 17.8046 60.9616Z" fill="white"></path><path fill-rule="evenodd" clip-rule="evenodd" d="M14.6128 50.1698C15.0873 50.2011 15.375 50.1303 15.4841 50.1126C13.8288 49.8907 11.9703 48.9647 11.8326 46.9276C12.6766 48.1913 14.2964 49.2752 15.6286 49.9669C16.2722 47.3947 14.3183 45.9907 11.0922 43.9754C10.7404 46.1664 11.2886 49.8825 14.6128 50.1698Z" fill="white"></path><path fill-rule="evenodd" clip-rule="evenodd" d="M16.5525 55.5141C17.7742 54.6399 19.2237 53.3368 19.8795 51.9669C20.0322 54.004 18.3237 55.1832 16.7162 55.6367C16.8252 55.6367 17.1198 55.6666 17.5861 55.57C20.8353 54.8142 20.8503 51.0586 20.1931 48.9398C17.2861 51.3922 15.5504 53.0576 16.5525 55.5141Z" fill="white"></path><path fill-rule="evenodd" clip-rule="evenodd" d="M19.599 46.7988C19.5281 48.84 17.701 49.8259 16.0539 50.1023C16.163 50.1146 16.452 50.1758 16.9252 50.1309C20.2385 49.7333 20.6625 46.0022 20.2412 43.8248C17.0833 45.945 15.1758 47.4129 15.9039 49.9621C17.2142 49.2267 18.7973 48.0897 19.599 46.7988Z" fill="white"></path><path fill-rule="evenodd" clip-rule="evenodd" d="M36.4982 88.4289C35.2655 89.5536 33.3621 90.3843 31.7082 89.1833C33.2189 89.348 35.0924 88.8033 36.4791 88.226C34.9165 86.0826 32.5849 86.6791 28.9675 87.8583C30.4251 89.5319 33.6307 91.4954 35.9841 89.1342C36.3114 88.7884 36.4409 88.5215 36.4982 88.4289Z" fill="white"></path><path fill-rule="evenodd" clip-rule="evenodd" d="M45.9106 94.8521C46.156 94.445 46.2255 94.1576 46.261 94.0528C45.3011 95.4186 43.624 96.6414 41.7478 95.8271C43.2586 95.6596 44.9684 94.7227 46.1969 93.8594C44.2062 92.1042 42.0587 93.1908 38.7835 95.1258C40.5697 96.4439 44.1244 97.6668 45.9106 94.8521Z" fill="white"></path><path fill-rule="evenodd" clip-rule="evenodd" d="M51.3248 48.5679C51.2798 48.5788 51.2457 48.6019 51.2457 48.6468C51.2457 48.7136 51.3684 48.7136 51.5825 48.7258C52.3556 48.7476 53.1751 48.7476 53.3428 48.7476C53.4655 48.7476 53.5664 48.7258 53.5664 48.6577C53.5664 48.6019 53.5214 48.591 53.4546 48.591C53.3428 48.591 53.1737 48.5801 53.006 48.5243C52.7701 48.4576 52.4456 48.2778 52.042 47.2811C51.3575 45.5789 49.5973 40.9546 49.4295 40.5283C49.2946 40.1811 49.2496 40.1253 49.1827 40.1253C49.1159 40.1253 49.0709 40.192 48.936 40.5624L46.3903 47.5166C46.1885 48.0763 45.9649 48.5025 45.4481 48.5692C45.3581 48.5801 45.2013 48.591 45.1236 48.591C45.0677 48.591 45.0227 48.6128 45.0227 48.6577C45.0227 48.7245 45.0895 48.7476 45.2354 48.7476C45.7617 48.7476 46.3794 48.7136 46.5021 48.7136C46.6248 48.7136 47.1075 48.7476 47.3761 48.7476C47.477 48.7476 47.5438 48.7258 47.5438 48.6577C47.5438 48.6128 47.5097 48.591 47.432 48.591H47.3202C47.1293 48.591 46.8934 48.4903 46.8934 48.2669C46.8934 48.0654 46.9493 47.7971 47.0502 47.5166L47.7224 45.5353C47.7442 45.4795 47.7783 45.4455 47.8342 45.4455H50.2449C50.3008 45.4455 50.324 45.4673 50.3458 45.5122L51.3889 48.2669C51.4598 48.4453 51.3916 48.5461 51.3248 48.5679ZM50.1031 45.041H47.961C47.927 45.041 47.9051 45.0193 47.927 44.9621L48.9141 41.9391C48.97 41.7716 49.0259 41.7716 49.0818 41.9391L50.1467 44.9621C50.159 45.0084 50.159 45.041 50.1031 45.041Z" fill="white"></path><path fill-rule="evenodd" clip-rule="evenodd" d="M54.0615 40.5052C54.1965 40.4385 54.4092 40.4385 54.4992 40.4385C54.5551 40.4385 54.611 40.4276 54.611 40.3595C54.611 40.3145 54.566 40.2805 54.4092 40.2805C53.8488 40.2805 53.3552 40.3145 53.2543 40.3145C53.1316 40.3145 52.5139 40.2805 51.9317 40.2805C51.8199 40.2805 51.7517 40.3023 51.7517 40.3595C51.7517 40.4262 51.7967 40.4385 51.8526 40.4385C51.9317 40.4385 52.2112 40.4493 52.3571 40.5052C52.6489 40.6168 52.7948 40.7857 52.9734 41.378L54.9696 48.0177C55.1932 48.7789 55.2505 48.9028 55.3623 48.9028C55.4973 48.9028 55.5532 48.7803 55.7318 48.3091C56.1354 47.2674 57.6721 43.17 58.0756 42.0943H58.0975L60.2954 48.32C60.4522 48.7571 60.519 48.9028 60.6322 48.9028C60.7549 48.9028 60.8122 48.768 61.1026 47.9401C61.5403 46.686 62.672 43.1251 63.1656 41.7035C63.3783 41.088 63.5583 40.6168 63.8937 40.4943C64.0164 40.4493 64.2305 40.4385 64.2755 40.4385C64.3423 40.4385 64.3764 40.4044 64.3764 40.3486C64.3764 40.3036 64.3205 40.2819 64.2196 40.2819C63.8719 40.2819 63.3892 40.3159 63.3115 40.3159C63.2106 40.3159 62.7402 40.2819 62.1675 40.2819C62.0325 40.2819 61.9766 40.3036 61.9766 40.3608C61.9766 40.4058 62.0216 40.4398 62.0775 40.4398C62.5929 40.4398 62.717 40.5746 62.717 40.7762C62.717 40.9219 62.7061 41.0785 62.5943 41.4924C62.2016 42.9263 61.1708 46.1726 60.8681 47.2034H60.8231L58.5924 40.8456C58.4574 40.463 58.3906 40.3173 58.3115 40.3173C58.2447 40.3173 58.1997 40.3731 58.0306 40.8347L55.6541 47.2252H55.6322C55.4645 46.6301 54.2974 42.5164 54.1297 41.7988C54.0179 41.3154 53.917 40.9232 53.917 40.7775C53.917 40.6318 53.9933 40.5379 54.0615 40.5052Z" fill="white"></path><path fill-rule="evenodd" clip-rule="evenodd" d="M69.5121 47.2811C68.8276 45.5789 67.0673 40.9546 66.8996 40.5283C66.7646 40.1811 66.7197 40.1253 66.6528 40.1253C66.586 40.1253 66.541 40.192 66.406 40.5624L63.8604 47.5166C63.6586 48.0763 63.4336 48.5025 62.9182 48.5692C62.8282 48.5801 62.6714 48.591 62.5937 48.591C62.5378 48.591 62.4928 48.6128 62.4928 48.6577C62.4928 48.7245 62.5596 48.7476 62.7055 48.7476C63.2332 48.7476 63.8495 48.7136 63.9722 48.7136C64.0949 48.7136 64.5776 48.7476 64.8462 48.7476C64.9471 48.7476 65.0139 48.7258 65.0139 48.6577C65.0139 48.6128 64.9798 48.591 64.9021 48.591H64.7903C64.5994 48.591 64.3649 48.4903 64.3649 48.2669C64.3649 48.0654 64.4208 47.7971 64.5217 47.5166L65.1939 45.5353C65.2157 45.4795 65.2498 45.4455 65.3057 45.4455H67.7164C67.7723 45.4455 67.7955 45.4673 67.8173 45.5122L68.8604 48.2669C68.9272 48.4467 68.8603 48.5474 68.7935 48.5692C68.7485 48.5801 68.7145 48.6033 68.7145 48.6482C68.7145 48.7149 68.8372 48.7149 69.0512 48.7272C69.8243 48.749 70.6438 48.749 70.8115 48.749C70.9342 48.749 71.0351 48.7272 71.0351 48.6591C71.0351 48.6033 70.9901 48.5924 70.9233 48.5924C70.8115 48.5924 70.6424 48.5815 70.4747 48.5257C70.2416 48.4562 69.9157 48.2778 69.5121 47.2811ZM67.5732 45.041H65.4311C65.3971 45.041 65.3752 45.0193 65.3971 44.9621L66.3842 41.9391C66.4401 41.7716 66.496 41.7716 66.5519 41.9391L67.6168 44.9621C67.6291 45.0084 67.6291 45.041 67.5732 45.041Z" fill="white"></path><path fill-rule="evenodd" clip-rule="evenodd" d="M76.4639 42.2988C76.4639 41.5267 75.9703 40.978 75.6908 40.7764C75.0963 40.3516 74.345 40.2835 73.6387 40.2835C73.291 40.2835 72.4388 40.3175 72.3161 40.3175C72.2602 40.3175 71.5539 40.2835 71.0494 40.2835C70.9267 40.2835 70.8695 40.3053 70.8695 40.3734C70.8695 40.4183 70.9144 40.4401 70.9594 40.4401C71.0603 40.4401 71.2512 40.451 71.3412 40.4741C71.7107 40.5531 71.8007 40.7315 71.8239 41.1128C71.8457 41.4709 71.8457 41.7841 71.8457 43.5312V45.5016C71.8457 46.5759 71.8457 47.4611 71.7898 47.9308C71.7448 48.2549 71.6889 48.5014 71.4653 48.5463C71.3644 48.5681 71.2294 48.5913 71.1285 48.5913C71.0617 48.5913 71.0385 48.6253 71.0385 48.658C71.0385 48.7247 71.0944 48.7479 71.2185 48.7479C71.5553 48.7479 72.2616 48.7138 72.2725 48.7138C72.3284 48.7138 73.0347 48.7479 73.651 48.7479C73.7737 48.7479 73.831 48.7138 73.831 48.658C73.831 48.624 73.8092 48.5913 73.741 48.5913C73.6401 48.5913 73.3933 48.5695 73.2365 48.5463C72.8997 48.5014 72.8329 48.2549 72.7988 47.9308C72.7429 47.4611 72.7429 46.5759 72.7429 45.5016V45.2333C72.7429 45.1775 72.7647 45.1434 72.822 45.1434L74.2005 45.1652C74.2673 45.1652 74.3014 45.187 74.3464 45.2319C74.57 45.5234 75.0977 46.2736 75.5681 46.8891C76.2076 47.7293 76.6003 48.2781 77.0816 48.5354C77.3734 48.692 77.6529 48.7479 78.2815 48.7479H79.0777C79.1677 48.7479 79.2291 48.7438 79.2714 48.7329C79.3573 48.7288 79.4445 48.7261 79.5263 48.7261C79.7622 48.7152 79.9517 48.7152 79.9749 48.7152C80.0308 48.7152 80.4126 48.7492 80.9062 48.7819C81.3889 48.816 81.982 48.8486 82.4647 48.8486C84.3709 48.8486 85.3798 48.0643 85.8625 47.5605C86.4897 46.9 87.0733 45.8134 87.0733 44.4027C87.0733 43.0695 86.547 42.1409 85.9852 41.5581C84.6504 40.1814 82.5997 40.2821 81.4898 40.2821C80.8176 40.2821 80.1113 40.3162 79.9763 40.3162C79.9204 40.3162 79.2141 40.2821 78.7096 40.2821C78.5869 40.2821 78.5296 40.3039 78.5296 40.372C78.5296 40.4169 78.5746 40.4387 78.6196 40.4387C78.7205 40.4387 78.9114 40.4496 79.0014 40.4728C79.3709 40.5518 79.4609 40.7301 79.4841 41.1114C79.5059 41.4695 79.5059 41.7827 79.5059 43.5298V45.5002C79.5059 46.5746 79.5059 47.4597 79.45 47.9295C79.405 48.2536 79.3491 48.5 79.1255 48.545C79.075 48.5559 79.0177 48.5668 78.9591 48.5749C78.9141 48.5709 78.8637 48.564 78.8119 48.5559C78.531 48.5109 78.0497 48.3884 77.4443 47.7497C76.7939 47.0553 76.0317 46.0585 75.1127 44.8833C76.1162 43.956 76.4639 43.1267 76.4639 42.2988ZM80.444 43.3514C80.444 42.4895 80.444 41.347 80.4549 40.9657C80.4549 40.8432 80.489 40.786 80.5899 40.7424C80.6799 40.6975 81.0944 40.6634 81.3193 40.6634C82.6542 40.6634 83.9318 40.82 84.9858 41.9284C85.4453 42.4105 86.0616 43.3283 86.0616 44.7499C86.0616 45.7807 85.748 46.8551 85.1644 47.4257C84.5031 48.0861 83.5391 48.4674 82.496 48.4674C81.1734 48.4674 80.7358 48.2318 80.5899 48.0194C80.4999 47.8968 80.4781 47.4488 80.4672 47.1683C80.4562 46.9559 80.4453 45.9251 80.4453 44.739V43.3514H80.444ZM74.8386 44.6042C74.5809 44.7839 74.2673 44.8166 73.9973 44.8166C73.5037 44.8166 72.9883 44.7376 72.8206 44.6369C72.7647 44.6028 72.7415 44.5579 72.7415 44.5021V40.8404C72.7415 40.7737 72.7756 40.7288 72.8315 40.7056C72.9433 40.6716 73.246 40.6389 73.5828 40.6389C74.7827 40.6389 75.5231 41.4791 75.5231 42.8789C75.5217 43.7313 75.2299 44.3359 74.8386 44.6042Z" fill="white"></path><path fill-rule="evenodd" clip-rule="evenodd" d="M43.8353 51.2031C43.9703 51.1363 44.183 51.1363 44.273 51.1363C44.3289 51.1363 44.3848 51.1254 44.3848 51.0573C44.3848 51.0124 44.3398 50.9784 44.183 50.9784C43.6226 50.9784 43.129 51.0124 43.0281 51.0124C42.9054 51.0124 42.2877 50.9784 41.7055 50.9784C41.5937 50.9784 41.5255 51.0002 41.5255 51.0573C41.5255 51.1241 41.5705 51.1363 41.6264 51.1363C41.7055 51.1363 41.985 51.1472 42.1309 51.2031C42.4227 51.3147 42.5686 51.4836 42.7472 52.0759L44.7434 58.7156C44.967 59.4768 45.0243 59.6007 45.1361 59.6007C45.2711 59.6007 45.327 59.4781 45.5056 59.007C45.9092 57.9653 47.4459 53.8679 47.8495 52.7922H47.8713L50.0692 59.0179C50.226 59.455 50.2929 59.6007 50.406 59.6007C50.5287 59.6007 50.586 59.4659 50.8764 58.638C51.3141 57.3838 52.4458 53.823 52.9394 52.4014C53.1521 51.7859 53.3321 51.3147 53.6689 51.1922C53.7916 51.1472 54.0057 51.1363 54.0507 51.1363C54.1175 51.1363 54.1516 51.1023 54.1516 51.0465C54.1516 51.0015 54.0957 50.9797 53.9948 50.9797C53.6471 50.9797 53.1644 51.0138 53.0867 51.0138C52.9858 51.0138 52.5154 50.9797 51.9427 50.9797C51.8077 50.9797 51.7518 51.0015 51.7518 51.0587C51.7518 51.1036 51.7968 51.1377 51.8527 51.1377C52.3681 51.1377 52.4922 51.2725 52.4922 51.474C52.4922 51.6197 52.4813 51.7763 52.3695 52.1903C51.9768 53.6242 50.946 56.8705 50.6433 57.9013H50.5983L48.3676 51.5435C48.2326 51.1608 48.1658 51.0151 48.0867 51.0151C48.0199 51.0151 47.9749 51.071 47.8058 51.5326L45.4292 57.9231H45.4074C45.2397 57.328 44.0726 53.2143 43.9049 52.4967C43.793 52.0133 43.6921 51.6211 43.6921 51.4754C43.6894 51.3256 43.7671 51.2357 43.8353 51.2031Z" fill="white"></path><path fill-rule="evenodd" clip-rule="evenodd" d="M55.1263 58.628C55.0813 58.9521 55.0254 59.1986 54.8018 59.2435C54.7009 59.2653 54.5659 59.2885 54.465 59.2885C54.3982 59.2885 54.375 59.3225 54.375 59.3552C54.375 59.4219 54.4309 59.4451 54.555 59.4451C54.8918 59.4451 55.5981 59.411 55.654 59.411C55.7099 59.411 56.4162 59.4451 57.0325 59.4451C57.1552 59.4451 57.2124 59.411 57.2124 59.3552C57.2124 59.3212 57.1906 59.2885 57.1224 59.2885C57.0215 59.2885 56.7748 59.2667 56.618 59.2435C56.2812 59.1986 56.2144 58.9521 56.1803 58.628C56.1244 58.1582 56.1244 57.2731 56.1244 56.1987V54.2284C56.1244 52.4813 56.1244 52.1681 56.1462 51.81C56.168 51.4178 56.258 51.2272 56.5607 51.1713C56.6957 51.1495 56.7625 51.1373 56.8416 51.1373C56.8866 51.1373 56.9316 51.1155 56.9316 51.0706C56.9316 51.0038 56.8757 50.9807 56.7516 50.9807C56.4148 50.9807 55.7085 51.0147 55.6526 51.0147C55.5967 51.0147 54.8904 50.9807 54.5195 50.9807C54.3968 50.9807 54.3395 51.0025 54.3395 51.0706C54.3395 51.1155 54.3845 51.1373 54.4295 51.1373C54.5086 51.1373 54.6531 51.1482 54.7772 51.1822C55.024 51.238 55.1358 51.4287 55.159 51.81C55.1808 52.1681 55.1808 52.4813 55.1808 54.2284V56.1987C55.1822 57.2731 55.1822 58.1569 55.1263 58.628Z" fill="white"></path><path fill-rule="evenodd" clip-rule="evenodd" d="M65.3258 58.8049C65.9203 59.3987 66.0566 59.5212 66.1466 59.5212C66.2257 59.5212 66.2475 59.4654 66.2475 58.726L66.2693 52.1639C66.2693 51.4926 66.3143 51.2461 66.6838 51.1671C66.8188 51.1331 66.8965 51.1331 66.9525 51.1331C67.0315 51.1331 67.0752 51.099 67.0752 51.0541C67.0752 50.9874 66.9961 50.9751 66.8734 50.9751C66.4139 50.9751 66.043 51.0092 65.9189 51.0092C65.7962 51.0092 65.2576 50.9751 64.7545 50.9751C64.6195 50.9751 64.5309 50.986 64.5309 51.0541C64.5309 51.099 64.5418 51.1331 64.6209 51.1331C64.7109 51.1331 64.9672 51.144 65.169 51.1889C65.5167 51.2788 65.5944 51.5253 65.6067 52.2524L65.7294 57.9403C65.3708 57.5712 64.1505 56.2041 63.0419 55.018C61.3171 53.1702 59.6482 51.3673 59.4805 51.1767C59.3687 51.065 59.1764 50.8185 59.0864 50.8185C58.9964 50.8185 58.9637 50.9411 58.9637 51.3782L58.9528 57.7946C58.9528 58.8131 58.8969 59.1386 58.616 59.2162C58.4483 59.272 58.2465 59.2829 58.1565 59.2829C58.1006 59.2829 58.0665 59.3047 58.0665 59.3496C58.0665 59.4286 58.1333 59.4395 58.2465 59.4395C58.751 59.4395 59.2214 59.4055 59.325 59.4055C59.4259 59.4055 59.8745 59.4395 60.5113 59.4395C60.6463 59.4395 60.7131 59.4177 60.7131 59.3496C60.7131 59.3047 60.679 59.2829 60.6231 59.2829C60.5222 59.2829 60.2767 59.272 60.064 59.2162C59.7613 59.1263 59.6495 58.8349 59.6264 57.9171L59.4805 52.5533C59.8391 52.9564 61.1044 54.3671 62.4024 55.767C63.5901 57.047 65.2031 58.6933 65.3258 58.8049Z" fill="white"></path><path fill-rule="evenodd" clip-rule="evenodd" d="M75.1488 58.8049C75.7433 59.3987 75.8796 59.5212 75.9696 59.5212C76.0487 59.5212 76.0705 59.4654 76.0705 58.726L76.0923 52.1639C76.0923 51.4926 76.1373 51.2461 76.5068 51.1671C76.6418 51.1331 76.7195 51.1331 76.7755 51.1331C76.8545 51.1331 76.8982 51.099 76.8982 51.0541C76.8982 50.9874 76.8191 50.9751 76.6964 50.9751C76.2369 50.9751 75.866 51.0092 75.7419 51.0092C75.6192 51.0092 75.0806 50.9751 74.5775 50.9751C74.4425 50.9751 74.3539 50.986 74.3539 51.0541C74.3539 51.099 74.3648 51.1331 74.4439 51.1331C74.5339 51.1331 74.7902 51.144 74.992 51.1889C75.3397 51.2788 75.4174 51.5253 75.4297 52.2524L75.5524 57.9403C75.1938 57.5712 73.9735 56.2041 72.8649 55.018C71.1401 53.1702 69.4712 51.3673 69.3035 51.1767C69.1917 51.065 68.9994 50.8185 68.9094 50.8185C68.8194 50.8185 68.7867 50.9411 68.7867 51.3782L68.7758 57.7946C68.7758 58.8131 68.7199 59.1386 68.439 59.2162C68.2713 59.272 68.0695 59.2829 67.9795 59.2829C67.9236 59.2829 67.8895 59.3047 67.8895 59.3496C67.8895 59.4286 67.9563 59.4395 68.0695 59.4395C68.574 59.4395 69.0444 59.4055 69.148 59.4055C69.2489 59.4055 69.6975 59.4395 70.3343 59.4395C70.4693 59.4395 70.5361 59.4177 70.5361 59.3496C70.5361 59.3047 70.502 59.2829 70.4461 59.2829C70.3452 59.2829 70.0997 59.272 69.887 59.2162C69.5843 59.1263 69.4725 58.8349 69.4494 57.9171L69.3035 52.5533C69.6621 52.9564 70.9274 54.3671 72.2268 55.767C73.4131 57.047 75.0247 58.6933 75.1488 58.8049Z" fill="white"></path><path fill-rule="evenodd" clip-rule="evenodd" d="M78.9087 58.6276C78.8637 58.9517 78.8078 59.1982 78.5841 59.2431C78.4832 59.2649 78.3483 59.2881 78.2474 59.2881C78.1805 59.2881 78.1574 59.3221 78.1574 59.3548C78.1574 59.4215 78.2133 59.4447 78.3373 59.4447C78.5051 59.4447 78.7628 59.4229 78.9877 59.4229C79.2236 59.412 79.4132 59.412 79.4363 59.412C79.604 59.412 79.874 59.4229 80.3103 59.446C80.748 59.4569 81.3643 59.4801 82.2056 59.4801C82.6433 59.4801 82.7333 59.4801 82.811 59.1887C82.8669 58.9531 82.9569 58.1919 82.9569 58.102C82.9569 58.023 82.9569 57.9345 82.8901 57.9345C82.8342 57.9345 82.811 57.9795 82.7892 58.102C82.7101 58.5609 82.5765 58.7856 82.2847 58.9082C81.9929 59.0307 81.4993 59.0307 81.2089 59.0307C80.1099 59.0307 79.9422 58.885 79.9081 58.1129C79.8972 57.8773 79.9081 56.5783 79.9081 56.1984V55.2125C79.9081 55.1675 79.9299 55.1335 79.9872 55.1335C80.1781 55.1335 81.288 55.1553 81.5907 55.1893C82.0283 55.2343 82.1292 55.4249 82.1742 55.5815C82.2192 55.7272 82.2192 55.8389 82.2192 55.9505C82.2192 56.0064 82.2411 56.0513 82.2983 56.0513C82.3774 56.0513 82.3774 55.9287 82.3774 55.8389C82.3774 55.7599 82.3992 55.3459 82.4224 55.1226C82.4565 54.7536 82.5124 54.5629 82.5124 54.4949C82.5124 54.4281 82.4906 54.405 82.4565 54.405C82.4115 54.405 82.3665 54.4608 82.2888 54.5507C82.1879 54.6624 82.0311 54.6855 81.7625 54.7073C81.5048 54.7291 80.1249 54.7291 79.979 54.7291C79.9231 54.7291 79.9122 54.695 79.9122 54.6174V51.5263C79.9122 51.4474 79.934 51.4147 79.979 51.4147C80.1017 51.4147 81.3248 51.4256 81.5157 51.4487C82.1211 51.5154 82.2329 51.6503 82.312 51.83C82.3679 51.9648 82.3788 52.1541 82.3788 52.2331C82.3788 52.3229 82.4006 52.3788 82.4688 52.3788C82.5138 52.3788 82.5356 52.312 82.5478 52.2562C82.5697 52.1214 82.5928 51.6298 82.6037 51.5168C82.6378 51.2036 82.6937 51.0688 82.6937 50.9912C82.6937 50.9354 82.6828 50.8904 82.6487 50.8904C82.5928 50.8904 82.5478 50.9354 82.4919 50.9463C82.402 50.968 82.2233 50.9912 82.0093 51.0021C81.7516 51.013 79.5195 51.013 79.4418 51.013L78.9823 50.9912C78.7355 50.9803 78.4328 50.9803 78.1751 50.9803C78.0524 50.9803 77.9951 51.0021 77.9951 51.0702C77.9951 51.1151 78.0401 51.1369 78.0851 51.1369C78.186 51.1369 78.3769 51.1478 78.4669 51.1709C78.8364 51.2499 78.9264 51.4283 78.9496 51.8096C78.9714 52.1677 78.9714 52.4809 78.9714 54.228V56.1984C78.9646 57.2727 78.9646 58.1565 78.9087 58.6276Z" fill="white"></path><path fill-rule="evenodd" clip-rule="evenodd" d="M89.6276 52.9937C89.6276 52.2216 89.134 51.6728 88.8545 51.4713C88.26 51.0465 87.5087 50.9784 86.8024 50.9784C86.4547 50.9784 85.6025 51.0124 85.4798 51.0124C85.4239 51.0124 84.7176 50.9784 84.2131 50.9784C84.0904 50.9784 84.0331 51.0002 84.0331 51.0682C84.0331 51.1132 84.0781 51.135 84.1231 51.135C84.224 51.135 84.4149 51.1459 84.5049 51.169C84.8744 51.248 84.9644 51.4264 84.9876 51.8077C85.0094 52.1658 85.0094 52.479 85.0094 54.226V56.1964C85.0094 57.2708 85.0094 58.1559 84.9535 58.6257C84.9085 58.9498 84.8526 59.1963 84.629 59.2412C84.5281 59.263 84.3931 59.2862 84.2922 59.2862C84.2254 59.2862 84.2022 59.3202 84.2022 59.3529C84.2022 59.4196 84.2581 59.4427 84.3822 59.4427C84.719 59.4427 85.4252 59.4087 85.4362 59.4087C85.4921 59.4087 86.1984 59.4427 86.8147 59.4427C86.9374 59.4427 86.9946 59.4087 86.9946 59.3529C86.9946 59.3188 86.9728 59.2862 86.9046 59.2862C86.8037 59.2862 86.557 59.2644 86.4002 59.2412C86.0634 59.1963 85.9966 58.9498 85.9625 58.6257C85.9066 58.1559 85.9066 57.2708 85.9066 56.1964V55.9282C85.9066 55.8724 85.9284 55.8383 85.9856 55.8383L87.3642 55.8601C87.431 55.8601 87.465 55.8819 87.51 55.9268C87.7337 56.2182 88.2613 56.9685 88.7317 57.584C89.3712 58.4242 89.7639 58.973 90.2452 59.2303C90.537 59.3869 90.8165 59.4427 91.4451 59.4427H92.2414C92.4432 59.4427 92.51 59.421 92.51 59.3529C92.51 59.3188 92.465 59.2862 92.4091 59.2862C92.3423 59.2862 92.1855 59.2862 91.9714 59.2521C91.6905 59.2072 91.2092 59.0846 90.6038 58.446C89.9534 57.7515 89.1912 56.7547 88.2722 55.5796C89.2799 54.6509 89.6276 53.823 89.6276 52.9937ZM88.0023 55.3004C87.7446 55.4802 87.431 55.5129 87.161 55.5129C86.6674 55.5129 86.152 55.4339 85.9843 55.3331C85.9284 55.2991 85.9052 55.2541 85.9052 55.1983V51.5367C85.9052 51.4699 85.9393 51.425 85.9952 51.4019C86.107 51.3678 86.4097 51.3351 86.7465 51.3351C87.9464 51.3351 88.6867 52.1753 88.6867 53.5752C88.6854 54.4276 88.395 55.0322 88.0023 55.3004Z" fill="white"></path><path fill-rule="evenodd" clip-rule="evenodd" d="M95.2321 43.4055L94.8067 44.3519L93.7677 44.3546L94.5381 45.0505L94.219 46.0391L95.1203 45.523L95.9629 46.1303L95.7502 45.1145L96.5888 44.5017L95.5552 44.3914L95.2321 43.4055Z" fill="white"></path><path fill-rule="evenodd" clip-rule="evenodd" d="M96.3886 49.5012L96.3314 48.4649L95.6742 49.2697L94.6706 49.0041L95.2338 49.8756L94.6706 50.7471L95.6742 50.4816L96.3314 51.2864L96.3886 50.2501L97.3567 49.8756L96.3886 49.5012Z" fill="white"></path><path fill-rule="evenodd" clip-rule="evenodd" d="M94.9242 55.4129L95.3496 56.3593L95.6728 55.3734L96.7063 55.2618L95.8677 54.649L96.0804 53.6332L95.2378 54.2418L94.3365 53.7257L94.6556 54.713L93.8852 55.4088L94.9242 55.4129Z" fill="white"></path><path fill-rule="evenodd" clip-rule="evenodd" d="M38.6508 56.3593L39.0763 55.4129L40.1152 55.4088L39.3449 54.713L39.6626 53.7257L38.7613 54.2418L37.92 53.6332L38.1327 54.649L37.2942 55.2618L38.3263 55.3734L38.6508 56.3593Z" fill="white"></path><path fill-rule="evenodd" clip-rule="evenodd" d="M39.1938 44.3519L38.7684 43.4055L38.4438 44.3914L37.4117 44.5017L38.2502 45.1145L38.0362 46.1303L38.8788 45.523L39.7801 46.0391L39.4624 45.0505L40.2328 44.3546L39.1938 44.3519Z" fill="white"></path><path fill-rule="evenodd" clip-rule="evenodd" d="M38.3251 49.2697L37.6693 48.4649L37.612 49.5012L36.6425 49.8756L37.612 50.2501L37.6693 51.2864L38.3251 50.4816L39.33 50.7471L38.7669 49.8756L39.33 49.0041L38.3251 49.2697Z" fill="white"></path><path fill-rule="evenodd" clip-rule="evenodd" d="M60.3923 14.3708C61.4722 14.8814 60.7304 14.507 60.7277 15.501C60.9295 17.2263 62.6066 16.6612 63.047 16.171C63.6933 16.8355 64.825 19.4935 64.825 20.6823C64.825 22.8951 63.6961 24.6898 62.3039 24.6898C60.8163 24.6898 59.9096 24.7157 59.4242 26.9162C58.2543 26.9162 58.8393 27.5004 57.9025 27.533V28.2479H56.7176V33.176H77.282V28.2479H76.0971V27.533C75.1604 27.5017 75.4317 26.9162 74.5754 26.9162C74.09 24.7157 73.1833 24.6898 71.6957 24.6898C70.3036 24.6898 69.176 22.8951 69.176 20.6823C69.176 19.4935 70.3077 16.8355 70.954 16.171C71.1571 16.5972 72.9133 17.1568 73.2733 15.501C73.2692 14.507 72.5288 14.8814 73.6087 14.3708C75.3458 13.5497 76.7611 13.4271 78.4151 11.74C82.7169 7.34709 81.1093 1.25209 78.1178 0.475917C76.3275 0.0115745 76.5062 1.056 75.3322 0.381959C74.4445 -0.12732 59.5551 -0.12732 58.6688 0.381959C57.4948 1.056 57.6748 0.0115745 55.8832 0.475917C52.8917 1.25209 51.2855 7.34709 55.5859 11.74C57.2399 13.4271 58.6552 13.5497 60.3923 14.3708ZM72.6079 12.9505C75.2708 12.0246 75.3731 5.70487 75.6103 2.80716L76.1094 2.16035L76.783 1.88665L76.8729 1.87167C77.6938 1.61975 78.9659 2.18895 79.4868 4.21925C81.0616 10.3578 71.8921 15.3553 72.6079 12.9505ZM71.9357 14.6159C72.3379 14.6159 72.6624 14.9413 72.6624 15.3417C72.6624 15.7434 72.3366 16.0675 71.9357 16.0675C71.5335 16.0675 71.209 15.742 71.209 15.3417C71.209 14.9413 71.5348 14.6159 71.9357 14.6159ZM62.0639 14.6159C62.4662 14.6159 62.7907 14.9413 62.7907 15.3417C62.7907 15.7434 62.4648 16.0675 62.0639 16.0675C61.6617 16.0675 61.3372 15.742 61.3372 15.3417C61.3372 14.9413 61.6631 14.6159 62.0639 14.6159ZM54.5142 4.21925C55.0351 2.18895 56.3059 1.61975 57.1281 1.87167L57.2181 1.88665L57.8916 2.16035L58.3907 2.80716C58.6279 5.70487 58.7302 12.0246 61.3931 12.9505C62.1089 15.3553 52.938 10.3578 54.5142 4.21925Z" fill="white"></path></svg>