<svg xmlns="http://www.w3.org/2000/svg" width="133" height="102" viewBox="0 0 133 102" fill="none"><path d="M61.0335 20.3703L67.0017 16.519L72.9682 20.3703L71.1505 13.5033L76.6559 9.017L69.5649 8.62524L67.0017 2L64.4369 8.62524L57.3459 9.017L62.8529 13.5033L61.0335 20.3703Z" fill="white"></path><path d="M39.2818 90.9235C35.2246 90.606 34.206 92.8934 31.6286 93.8997C38.1163 97.841 44.6325 97.582 51.1455 93.241C46.5813 95.0213 43.3374 91.2426 39.2818 90.9235Z" fill="white"></path><path d="M41.6998 87.3967C36.8483 88.0791 34.5614 83.6544 30.6874 82.4096C26.8119 81.1664 25.2942 83.1584 22.5557 83.5454C27.9632 88.8753 34.364 90.1217 41.6998 87.3967Z" fill="white"></path><path d="M32.5746 79.7372C28.181 79.6282 26.807 75.3772 23.5615 73.7091C20.3145 72.0409 18.68 73.5795 16.1989 73.5195C20.2024 79.0279 25.6841 81.072 32.5746 79.7372Z" fill="white"></path><path d="M26.992 71.3869C22.9237 70.4153 22.4847 66.1849 19.7936 63.9891C17.1009 61.7918 15.2736 62.9023 12.9758 62.3557C15.6132 68.278 20.3131 71.2652 26.992 71.3869Z" fill="white"></path><path d="M23.2237 62.7187C19.3876 61.0521 19.694 56.8091 17.4277 54.1773C15.1599 51.544 13.1668 52.3164 11 51.3765C12.5619 57.6684 16.6681 61.4313 23.2237 62.7187Z" fill="white"></path><path d="M21.6225 53.139C18.2428 50.6747 19.4683 46.6023 17.8306 43.5377C16.1929 40.4731 14.0782 40.7921 12.1688 39.402C12.3204 45.8835 15.5059 50.452 21.6225 53.139Z" fill="white"></path><path d="M22.0679 42.3113C19.7637 39.2688 21.9052 36.032 21.2814 32.9231C20.656 29.8143 18.7261 29.5363 17.4232 27.8192C15.8502 33.5219 17.4295 38.3526 22.0679 42.3113Z" fill="white"></path><path d="M25.73 24.8266C26.068 21.9958 24.495 21.217 23.8649 19.3861C20.9227 23.8156 20.9211 28.3856 23.7733 33.0663C22.6552 29.82 25.3921 27.6558 25.73 24.8266Z" fill="white"></path><path d="M30.4585 19.5531C30.9923 17.5201 29.9231 16.7934 29.6467 15.3906C27.0503 18.3273 26.586 21.662 28.1938 25.3696C27.7073 22.8879 29.9247 21.5846 30.4585 19.5531Z" fill="white"></path><path d="M36.2372 14.8944C37.2701 13.3653 36.5957 12.4506 36.7742 11.209C33.7688 12.8866 32.4137 15.5168 32.6696 19.0569C32.9886 16.8564 35.2044 16.422 36.2372 14.8944Z" fill="white"></path><path d="M53.0897 76.7654C52.9539 72.6976 50.5676 71.9394 49.2804 69.4893C46.0855 76.3768 47.0694 82.8266 52.1074 88.8168C49.83 84.4774 53.2239 80.8331 53.0897 76.7654Z" fill="white"></path><path d="M44.9134 75.4311C44.359 71.9684 42.238 71.5782 40.8751 69.6242C38.8868 75.8545 40.4234 81.2602 45.3713 85.835C42.9598 82.3739 45.4677 78.8938 44.9134 75.4311Z" fill="white"></path><path d="M35.6022 64.1215C32.9411 69.5351 33.606 74.6754 37.4989 79.5235C35.7696 76.0355 38.5302 73.2031 38.497 69.9695C38.4623 66.7343 36.5814 66.0898 35.6022 64.1215Z" fill="white"></path><path d="M30.6889 56.9347C27.6298 61.7259 27.7135 66.6103 30.8532 71.5595C29.5976 68.1126 32.4814 65.7463 32.7878 62.7148C33.0942 59.6818 31.398 58.8809 30.6889 56.9347Z" fill="white"></path><path d="M27.7879 48.0307C24.4366 51.8093 23.8302 56.1061 25.8959 60.8863C25.2736 57.6858 28.1337 56.0129 28.8255 53.3954C29.5156 50.7778 28.14 49.8379 27.7879 48.0307Z" fill="white"></path><path d="M24.3654 49.6347C24.5597 46.7202 27.4213 45.9256 28.62 43.8151C29.8187 41.7046 28.8427 40.5751 28.9517 38.9291C25.1819 41.4361 23.6721 45.0188 24.3654 49.6347Z" fill="white"></path><path d="M31.7456 30.8383C27.96 32.1147 25.8564 34.8255 25.3953 38.9185C26.226 36.4778 28.846 36.4526 30.3495 34.9282C31.853 33.4022 31.2765 32.2174 31.7456 30.8383Z" fill="white"></path><path d="M35.1491 24.6089C31.6747 25.1176 29.4305 27.1333 28.3897 30.6007C29.4905 28.6198 31.7615 29.01 33.2998 27.9279C34.8396 26.8426 34.5284 25.7274 35.1491 24.6089Z" fill="white"></path><path d="M38.385 18.8548C35.5202 18.9638 33.5208 20.4029 32.3727 23.1279C33.4403 21.6161 35.2501 22.1311 36.5941 21.387C37.9365 20.6414 37.7817 19.7078 38.385 18.8548Z" fill="white"></path><path d="M41.675 13.7141C43.0648 12.7347 42.7837 11.7269 43.3443 10.7174C40.2063 11.1771 38.1785 12.9969 37.2388 16.1295C38.2337 14.3397 40.2852 14.6919 41.675 13.7141Z" fill="white"></path><path d="M94.7195 90.9235C90.6639 91.2426 87.42 95.0229 82.8558 93.2425C89.3673 97.5835 95.885 97.8426 102.373 93.9013C99.7953 92.8934 98.7767 90.606 94.7195 90.9235Z" fill="white"></path><path d="M121.026 62.3544C118.728 62.9009 116.901 61.792 114.208 63.9878C111.583 66.1298 111.098 70.2039 107.303 71.3065C108.763 68.5926 109.953 65.7144 110.841 62.705C117.359 61.4065 121.443 57.6484 123 51.3771C120.833 52.317 118.84 51.5429 116.572 54.1763C114.32 56.7923 114.606 60.9958 110.846 62.6845C111.755 59.5962 112.348 56.3705 112.58 53.0468C118.564 50.3471 121.681 45.8102 121.83 39.4014C119.92 40.7915 117.807 40.4724 116.168 43.537C114.565 46.5369 115.702 50.5003 112.583 52.9773C112.654 51.9379 112.694 50.8889 112.694 49.8321C112.694 47.2319 112.471 44.6855 112.051 42.2054C116.593 38.2656 118.134 33.4712 116.574 27.8191C115.273 29.5378 113.341 29.8142 112.716 32.9231C112.103 35.9782 114.159 39.1565 112.041 42.1532C110.397 32.5123 105.715 23.9062 99.0121 17.3615C106.653 25.2821 111.354 36.0603 111.354 47.9365C111.354 67.4362 98.6837 83.9725 81.1298 89.7668C80.5265 89.195 79.7164 88.8411 78.8225 88.8411C77.3237 88.8411 76.0477 89.8331 75.6181 91.1933C74.7748 91.3544 73.9235 91.4934 73.0644 91.604L67.3237 83.3469L61.5829 91.604C60.7143 91.4902 59.8552 91.3512 59.004 91.1885C58.5728 89.83 57.2999 88.8395 55.8012 88.8395C54.912 88.8395 54.1018 89.1918 53.5001 89.7589C35.9621 83.9646 23.3009 67.4315 23.3009 47.9381C23.3009 36.0619 28.0025 25.2837 35.6431 17.3631C27.2049 25.6043 21.9633 37.1061 21.9633 49.8337C21.9633 69.6984 34.7255 86.5805 52.4957 92.7287C52.75 94.3305 54.1382 95.5627 55.8091 95.5627C56.8514 95.5627 57.7863 95.0825 58.4038 94.3321C59.9658 94.6433 61.5577 94.8739 63.1749 95.0209L67.3316 101L71.4867 95.0224C73.096 94.8755 74.6816 94.6465 76.2372 94.3368C76.8547 95.0856 77.7881 95.5627 78.8288 95.5627C80.4965 95.5627 81.8832 94.3337 82.1406 92.7366C85.8788 91.446 89.3974 89.6799 92.6208 87.511C99.8223 90.0811 106.117 88.7969 111.444 83.546C108.706 83.1589 107.187 81.1669 103.313 82.4102C99.5523 83.617 97.2876 87.8206 92.7218 87.4431C95.9515 85.2568 98.8827 82.6645 101.447 79.7405C108.328 81.0674 113.804 79.0233 117.803 73.5181C115.321 73.5781 113.687 72.0379 110.44 73.7076C107.201 75.3726 105.825 79.6094 101.452 79.7357C103.687 77.1861 105.642 74.3853 107.266 71.3791C113.81 71.1848 118.423 68.2008 121.026 62.3544Z" fill="white"></path><path d="M110.23 33.0638C113.083 28.3831 113.079 23.8131 110.139 19.3836C109.507 21.2161 107.936 21.9933 108.274 24.8241C108.61 27.6549 111.347 29.8191 110.23 33.0638Z" fill="white"></path><path d="M105.808 25.3696C107.417 21.662 106.951 18.3273 104.355 15.3906C104.08 16.7918 103.011 17.5201 103.543 19.5531C104.078 21.5846 106.294 22.8879 105.808 25.3696Z" fill="white"></path><path d="M97.7663 14.8944C98.7991 16.4236 101.015 16.858 101.334 19.0569C101.59 15.5168 100.235 12.8882 97.2293 11.209C97.4078 12.4506 96.7334 13.3637 97.7663 14.8944Z" fill="white"></path><path d="M84.7229 69.4893C83.4358 71.9394 81.0495 72.6976 80.9136 76.7654C80.7778 80.8331 84.1733 84.4774 81.896 88.8168C86.9323 82.8266 87.9162 76.3768 84.7229 69.4893Z" fill="white"></path><path d="M93.1264 69.6242C91.7634 71.5782 89.6425 71.97 89.0881 75.4311C88.5338 78.8922 91.0433 82.3739 88.6301 85.835C93.5796 81.2602 95.1147 75.8545 93.1264 69.6242Z" fill="white"></path><path d="M98.3996 64.1215C97.422 66.0898 95.5395 66.7359 95.5047 69.9679C95.4716 73.2016 98.2322 76.0355 96.5028 79.5219C100.396 74.6738 101.061 69.5351 98.3996 64.1215Z" fill="white"></path><path d="M103.314 56.9347C102.605 58.8809 100.909 59.6834 101.215 62.7148C101.522 65.7463 104.406 68.1126 103.15 71.5595C106.288 66.6103 106.373 61.7259 103.314 56.9347Z" fill="white"></path><path d="M106.214 48.0307C105.862 49.8379 104.486 50.7778 105.178 53.3954C105.87 56.0129 108.728 57.6874 108.107 60.8863C110.172 56.1061 109.567 51.8093 106.214 48.0307Z" fill="white"></path><path d="M105.05 38.9291C105.159 40.5751 104.183 41.7046 105.381 43.8151C106.58 45.9256 109.442 46.7186 109.636 49.6347C110.329 45.0172 108.821 41.4345 105.05 38.9291Z" fill="white"></path><path d="M102.256 30.8383C102.725 32.2158 102.149 33.4022 103.652 34.9282C105.156 36.4526 107.776 36.4778 108.607 38.9185C108.147 34.8255 106.042 32.1147 102.256 30.8383Z" fill="white"></path><path d="M98.8528 24.6089C99.475 25.7274 99.1623 26.8426 100.702 27.9263C102.242 29.01 104.511 28.6198 105.612 30.5991C104.571 27.1333 102.327 25.1176 98.8528 24.6089Z" fill="white"></path><path d="M95.618 18.8548C96.2197 19.7078 96.065 20.6414 97.4105 21.387C98.7545 22.1311 100.564 21.6161 101.632 23.1279C100.482 20.4029 98.4829 18.9638 95.618 18.8548Z" fill="white"></path><path d="M92.3286 13.7141C93.7183 14.6919 95.7698 14.3397 96.7632 16.1295C95.8235 12.9969 93.7957 11.1771 90.6577 10.7174C91.2199 11.7269 90.9372 12.7347 92.3286 13.7141Z" fill="white"></path><path d="M51.6511 37.065C51.7032 37.1692 51.8327 37.5041 52.0348 38.076L54.7465 45.6711H54.9929L57.0523 39.8152L59.1369 45.6711H59.4086L61.9496 38.2924C62.1423 37.6984 62.286 37.3209 62.376 37.1645C62.5087 36.9291 62.6524 36.7711 62.7993 36.6858C62.9493 36.6005 63.142 36.5563 63.3789 36.5563V36.3083H60.653V36.5563C60.9263 36.5563 61.1474 36.5879 61.3211 36.6511C61.4206 36.6874 61.5011 36.7522 61.5674 36.8422C61.6322 36.9323 61.6638 37.0318 61.6638 37.1345C61.6638 37.3509 61.5643 37.7395 61.3669 38.3019L59.6297 43.3427L57.8735 38.3729C57.6713 37.7979 57.5703 37.392 57.5703 37.1629C57.5703 36.9765 57.6271 36.8296 57.7456 36.7206C57.8624 36.6132 58.0472 36.5579 58.2983 36.5579H58.5415V36.3099H54.9865V36.5579C55.1713 36.5579 55.3071 36.5721 55.3908 36.5989C55.503 36.6337 55.6167 36.6937 55.7288 36.7743C55.8141 36.8343 55.8852 36.9086 55.9452 36.9923C56.0605 37.1645 56.1663 37.3635 56.261 37.591L56.4774 38.2071L56.7538 38.9764L55.2329 43.3411L53.4309 38.2055C53.2335 37.6352 53.134 37.2703 53.134 37.1123C53.134 36.9607 53.1956 36.8296 53.322 36.7206C53.4483 36.6132 53.6299 36.5579 53.8668 36.5579H54.0295V36.3099H50.6514V36.5579C50.9183 36.5579 51.1283 36.5989 51.2815 36.6843C51.4395 36.7664 51.5611 36.8928 51.6511 37.065Z" fill="white"></path><path d="M54.6597 48.9826C54.8302 48.7646 55.1019 48.654 55.4746 48.654H55.8031V48.406H51.8817V48.654H52.2055C52.4218 48.654 52.6287 48.7077 52.8261 48.8151C52.9667 48.8957 53.0583 48.9921 53.1041 49.1058C53.1609 49.2527 53.1909 49.5592 53.1909 50.022V55.9459C53.1909 56.494 53.1388 56.8384 53.0299 56.9837C52.8577 57.2017 52.5829 57.3123 52.2039 57.3123H51.8801V57.5603H55.8015V57.3123H55.473C55.2567 57.3123 55.0545 57.2602 54.8602 57.1512C54.715 57.0706 54.6218 56.9742 54.5776 56.8605C54.5207 56.7136 54.4907 56.4071 54.4907 55.9443V50.0204C54.4923 49.4723 54.5476 49.1263 54.6597 48.9826Z" fill="white"></path><path d="M41.9636 44.9551C41.8515 45.0641 41.6051 45.1509 41.2229 45.2173V45.4653H44.1083V45.2173C43.6692 45.1857 43.3818 45.1162 43.2507 45.0119C43.1165 44.9061 43.0501 44.7813 43.0501 44.6439C43.0501 44.4685 43.1291 44.2015 43.2807 43.8477L43.8935 42.4133H47.439L47.9791 43.7166C48.1591 44.1447 48.2476 44.4574 48.2476 44.6549C48.2476 44.805 48.186 44.9314 48.0565 45.034C47.927 45.1383 47.6806 45.1967 47.3174 45.2157V45.4637H50.9261V45.2157C50.5518 45.192 50.2612 45.0909 50.0511 44.9092C49.8411 44.7244 49.6089 44.3295 49.3547 43.7166L46.1724 36.1009H45.945L42.7264 43.636C42.4468 44.2995 42.1942 44.7386 41.9636 44.9551ZM45.6891 38.2224L47.2305 41.9173H44.1051L45.6891 38.2224Z" fill="white"></path><path d="M79.0422 56.8305C78.9917 56.9758 78.8922 57.0833 78.7469 57.1543C78.5542 57.2586 78.3489 57.3107 78.1326 57.3107H77.8088V57.5587H84.8619L85.6516 55.2666H85.3752C85.083 55.8274 84.7972 56.2492 84.5192 56.5272C84.306 56.7389 84.0802 56.881 83.848 56.9537C83.6127 57.0248 83.2384 57.0611 82.7236 57.0611H81.1743C80.9232 57.0611 80.751 57.0359 80.661 56.9821C80.571 56.9316 80.5094 56.8605 80.4731 56.772C80.4383 56.6852 80.4194 56.4387 80.4194 56.0328V53.0124H82.4346C82.8167 53.0124 83.0994 53.0582 83.2842 53.1482C83.469 53.2383 83.6017 53.3631 83.6822 53.5195C83.7438 53.6458 83.8085 53.9333 83.8717 54.3804H84.1197V51.1894H83.8717C83.8449 51.7091 83.7154 52.074 83.48 52.281C83.3047 52.4374 82.9573 52.5164 82.4361 52.5164H80.421V48.902H82.9289C83.3821 48.902 83.6996 48.9368 83.8796 49.0031C84.1023 49.0995 84.2729 49.2385 84.3881 49.4202C84.5034 49.6018 84.6061 49.9351 84.7008 50.4217H84.963L84.8667 48.406H77.812V48.654H78.1357C78.5148 48.654 78.7848 48.744 78.9475 48.9241C79.0643 49.0584 79.1228 49.4138 79.1228 49.9952V55.9475C79.1212 56.3913 79.0959 56.6852 79.0422 56.8305Z" fill="white"></path><path d="M65.2281 42.4133H68.7736L69.3137 43.7166C69.4938 44.1447 69.5838 44.4574 69.5838 44.6549C69.5838 44.805 69.5222 44.9314 69.3927 45.034C69.2632 45.1383 69.0168 45.1967 68.6536 45.2157V45.4637H72.2623V45.2157C71.8864 45.192 71.5974 45.0909 71.3874 44.9092C71.1773 44.7244 70.9452 44.3295 70.6893 43.7166L67.507 36.1009H67.2796L64.061 43.636C63.7831 44.2963 63.5288 44.7355 63.2998 44.9519C63.1877 45.0609 62.9413 45.1478 62.5591 45.2141V45.4621H65.4445V45.2141C65.0054 45.1825 64.718 45.113 64.5869 45.0088C64.4527 44.9029 64.3864 44.7781 64.3864 44.6407C64.3864 44.4653 64.4653 44.1984 64.6169 43.8445L65.2281 42.4133ZM67.0254 38.2224L68.5667 41.9173H65.4413L67.0254 38.2224Z" fill="white"></path><path d="M46.9668 57.7664L49.5079 50.3876C49.7005 49.7937 49.8442 49.4161 49.9343 49.2597C50.0685 49.0243 50.2106 48.8664 50.3575 48.7811C50.5076 48.6958 50.7002 48.6515 50.9371 48.6515V48.4035H48.2128V48.6515C48.4861 48.6515 48.7072 48.6831 48.8809 48.7463C48.9804 48.7826 49.0609 48.8474 49.1272 48.9375C49.192 49.0275 49.2236 49.127 49.2236 49.2297C49.2236 49.4461 49.1241 49.8347 48.9267 50.3971L47.1895 55.4379L45.4333 50.4682C45.2311 49.8932 45.1301 49.4872 45.1301 49.2581C45.1301 49.0717 45.1869 48.9248 45.3054 48.8158C45.4222 48.7084 45.607 48.6531 45.8581 48.6531H46.1013V48.4051H42.5463V48.6531C42.7311 48.6531 42.8669 48.6673 42.9506 48.6942C43.0628 48.7289 43.1765 48.789 43.2886 48.8695C43.3739 48.9296 43.445 49.0038 43.505 49.0875C43.6203 49.2597 43.7261 49.4588 43.8208 49.6862L44.0372 50.3023L44.3136 51.0716L42.7927 55.4363L40.9907 50.3007C40.7933 49.7305 40.6938 49.3656 40.6938 49.2076C40.6938 49.0559 40.7554 48.9248 40.8818 48.8158C41.0081 48.7084 41.1897 48.6531 41.4266 48.6531H41.5893V48.4051H38.2112V48.6531C38.4781 48.6531 38.6881 48.6942 38.8413 48.7795C38.9977 48.8616 39.1193 48.9896 39.2093 49.1618C39.2614 49.266 39.3909 49.6009 39.5931 50.1728L42.3031 57.7679H42.5495L44.6089 51.912L46.6936 57.7679H46.9668V57.7664Z" fill="white"></path><path d="M73.1388 36.3083V36.5563H73.4815C73.8258 36.5563 74.0864 36.6558 74.2617 36.8533C74.388 36.9907 74.4512 37.3477 74.4512 37.9243V43.8482C74.4512 44.3679 74.4054 44.6996 74.3106 44.8386C74.1448 45.0898 73.8684 45.2162 73.4815 45.2162H73.1388V45.4642H77.0602V45.2162H76.7032C76.3621 45.2162 76.1078 45.1167 75.9373 44.9192C75.8109 44.7818 75.7478 44.4248 75.7478 43.8482V41.1832C75.8188 41.188 75.8852 41.1895 75.9531 41.1927C76.0178 41.1943 76.0794 41.1974 76.1379 41.1974C76.2784 41.1974 76.46 41.1927 76.6827 41.1832L79.7923 45.4642H82.2434V45.2162C81.7443 45.1609 81.3385 45.0361 81.0305 44.8371C80.7194 44.6396 80.3498 44.2368 79.9171 43.6333L78.0235 41.011C78.7942 40.8388 79.3612 40.5466 79.7292 40.1311C80.0956 39.7173 80.2788 39.2291 80.2788 38.6652C80.2788 38.1376 80.1177 37.6842 79.7955 37.3051C79.4749 36.9259 79.0848 36.6621 78.6221 36.52C78.1625 36.3794 77.4455 36.3083 76.4727 36.3083H73.1388ZM78.202 37.3556C78.5542 37.7142 78.731 38.1802 78.731 38.7505C78.731 39.335 78.5131 39.8168 78.0725 40.1959C77.635 40.5735 76.9843 40.7614 76.1205 40.7614C76.081 40.7614 76.0305 40.7599 75.9689 40.7567C75.9073 40.7551 75.833 40.7551 75.7478 40.7551V36.9433C76.1868 36.8612 76.5374 36.8185 76.7948 36.8185C77.3776 36.8201 77.8466 36.9986 78.202 37.3556Z" fill="white"></path><path d="M90.8841 44.033C91.658 43.1768 92.0433 42.1137 92.0433 40.8388C92.0433 39.891 91.827 39.0522 91.3927 38.3271C90.9599 37.6021 90.3867 37.0839 89.6744 36.7727C88.9637 36.4615 87.923 36.3083 86.5569 36.3083H82.8361V36.5563H83.1788C83.5246 36.5563 83.7836 36.6558 83.9589 36.8533C84.0853 36.9955 84.1485 37.3525 84.1485 37.9243V43.8482C84.1485 44.3631 84.0995 44.698 84.0016 44.845C83.8405 45.0914 83.5673 45.2162 83.1804 45.2162H82.8376V45.4642H86.9217C88.6952 45.4642 90.0155 44.9887 90.8841 44.033ZM85.4435 44.7928V37.016C85.9583 36.8849 86.4195 36.8201 86.8222 36.8201C87.8993 36.8201 88.7805 37.1834 89.4691 37.9133C90.1545 38.6399 90.4972 39.6367 90.4972 40.9005C90.4972 42.1547 90.1545 43.1499 89.4691 43.8813C88.7805 44.6159 87.9182 44.9808 86.8775 44.9808C86.4906 44.9808 86.0152 44.9192 85.4435 44.7928Z" fill="white"></path><path d="M95.7906 57.3114C95.2915 57.2561 94.8856 57.1313 94.5777 56.9323C94.2666 56.7348 93.897 56.332 93.4643 55.7286L91.5707 53.1063C92.3414 52.9341 92.9084 52.6418 93.2763 52.2264C93.6427 51.8125 93.8259 51.3244 93.8259 50.7604C93.8259 50.2328 93.6648 49.7794 93.3427 49.4003C93.0221 49.0212 92.632 48.7574 92.1693 48.6152C91.7097 48.4746 90.9927 48.4035 90.0198 48.4035H86.6875V48.6515H87.0302C87.3761 48.6515 87.6351 48.7511 87.8104 48.9485C87.9368 49.086 87.9983 49.443 87.9983 50.0195V55.9434C87.9983 56.4631 87.9525 56.7949 87.8578 56.9339C87.692 57.185 87.4156 57.3114 87.0287 57.3114H86.686V57.5594H90.6073V57.3114H90.2504C89.9093 57.3114 89.655 57.2119 89.4845 57.0144C89.3581 56.877 89.2965 56.52 89.2965 55.9434V53.2785C89.3676 53.2832 89.4339 53.2848 89.5018 53.2879C89.5666 53.2895 89.6282 53.2927 89.685 53.2927C89.8256 53.2927 90.0072 53.2879 90.2299 53.2785L93.3395 57.5594H95.7906V57.3114ZM89.6692 52.8567C89.6297 52.8567 89.5792 52.8551 89.5176 52.8519C89.456 52.8504 89.3818 52.8504 89.2965 52.8504V49.0386C89.7356 48.9564 90.0862 48.9138 90.3436 48.9138C90.9263 48.9138 91.3954 49.0938 91.7492 49.4509C92.1013 49.8094 92.2782 50.2755 92.2782 50.8457C92.2782 51.4302 92.0603 51.912 91.6197 52.2911C91.1838 52.6687 90.5331 52.8567 89.6692 52.8567Z" fill="white"></path><path d="M64.8538 57.7063H65.097V49.9911C65.097 49.4777 65.1476 49.1491 65.2471 49.0038C65.4129 48.7684 65.6893 48.6515 66.0825 48.6515H66.4094V48.4035H63.1924V48.6515H63.5146C63.8778 48.6515 64.1447 48.7463 64.3137 48.9343C64.4401 49.0749 64.5048 49.4272 64.5048 49.9911V55.2783L58.8967 48.4035H56.4362V48.6515C56.7015 48.6515 56.8989 48.6721 57.03 48.7116C57.2953 48.7984 57.4943 48.8916 57.6333 48.9896C57.7691 49.0891 57.9713 49.2929 58.2366 49.6041V55.9703C58.2366 56.4837 58.1861 56.8122 58.0866 56.9576C57.9207 57.1929 57.6428 57.3098 57.2464 57.3098H56.9242V57.5578H60.1412V57.3098H59.8143C59.4527 57.3098 59.1858 57.2151 59.0136 57.0271C58.892 56.8865 58.8288 56.5342 58.8288 55.9703V50.3308L64.8538 57.7063Z" fill="white"></path><path d="M75.3103 57.7063H75.5535V49.9911C75.5535 49.4777 75.6041 49.1491 75.7036 49.0038C75.8694 48.7684 76.1458 48.6515 76.539 48.6515H76.8659V48.4035H73.6489V48.6515H73.9711C74.3343 48.6515 74.6012 48.7463 74.7702 48.9343C74.8965 49.0749 74.9613 49.4272 74.9613 49.9911V55.2783L69.3532 48.4035H66.8927V48.6515C67.158 48.6515 67.3554 48.6721 67.4865 48.7116C67.7518 48.7984 67.9508 48.8916 68.0898 48.9896C68.2256 49.0891 68.4278 49.2929 68.6931 49.6041V55.9703C68.6931 56.4837 68.6425 56.8122 68.5431 56.9576C68.3772 57.1929 68.0993 57.3098 67.7029 57.3098H67.3807V57.5578H70.5977V57.3098H70.2708C69.9091 57.3098 69.6422 57.2151 69.4701 57.0271C69.3485 56.8865 69.2853 56.5342 69.2853 55.9703V50.3308L75.3103 57.7063Z" fill="white"></path></svg>