<svg xmlns="http://www.w3.org/2000/svg" width="133" height="102" viewBox="0 0 133 102" fill="none"><path d="M46.5386 36.8912V33.0391H44.4026V36.6994C44.4026 37.3544 43.7981 37.7949 42.7771 37.7949C41.7108 37.7949 41.1289 37.3706 41.1289 36.6912V33.0391H38.9686V36.6912C38.9686 38.5929 40.5228 39.4007 42.6896 39.4007C45.0087 39.4007 46.5386 38.5848 46.5386 36.8912ZM53.7293 39.3113V37.6421H49.9209V33.0391H47.7622V39.313L53.7293 39.3113ZM60.147 34.614V33.0391H52.6808V34.614H55.3192V39.3113H57.5022V34.614H60.147ZM63.0172 39.3113V33.0391H60.8261V39.313L63.0172 39.3113ZM73.0699 39.3113V33.0391H70.37L68.6635 36.8034L67.0396 33.0391H64.2505V39.313H66.2811V35.9241L67.7478 39.313H69.5645L71.0458 35.9241V39.313H73.0716L73.0699 39.3113ZM76.4538 38.1541H79.8328L80.3839 39.313H82.6851L79.5298 33.0391H76.9562L73.6177 39.313H75.8736L76.4538 38.1541ZM79.1554 36.7465H77.1556L77.9448 35.2365L78.183 34.6612L78.4067 35.23L79.1554 36.7465ZM89.4578 34.614V33.0391H81.9915V34.614H84.6299V39.3113H86.8129V34.614H89.4578ZM96.7182 39.3113V37.7542H92.2339V36.9383H96.5351V35.4137H92.2339V34.6059H96.6631V33.0391H90.1303V39.313L96.7182 39.3113ZM55.2527 42.6466H53.1897C53.1897 42.6466 51.8429 46.5946 51.8429 46.6905C51.8429 46.5946 50.5837 42.6466 50.5837 42.6466H48.3456C48.3456 42.6466 47.0945 46.5946 47.0945 46.6905C47.0945 46.5946 45.7396 42.6466 45.7396 42.6466H43.4221L45.764 48.9205H48.0977C48.0977 48.9205 49.3569 45.1724 49.365 45.0684C49.3731 45.1724 50.6242 48.9205 50.6242 48.9205H52.966L55.2527 42.6466ZM58.0775 48.9205V42.6466H55.8864V48.9205H58.0775ZM66.6004 48.9205V42.6466H64.5584V46.0598L61.5554 42.6466H59.3092V48.9205H61.3641V45.4276L64.4644 48.9205H66.6004ZM75.1346 48.9205V42.6466H73.0959V46.0598L70.0912 42.6466H67.845V48.9205H69.9V45.4276L73.0003 48.9205H75.1346ZM82.9704 48.9205V47.3618H78.4845V46.5458H82.7872V45.0196H78.4845V44.2134H82.9137V42.6466H76.3809V48.9205H82.9704ZM91.3928 44.5564C91.3928 43.9891 91.2567 43.5812 90.9698 43.287C90.5955 42.8871 89.9504 42.6466 88.9618 42.6466H83.9833V48.9205H86.1095V46.7067H88.0462L89.6004 48.9205H91.9746L90.0866 46.3622C90.4847 46.2938 90.8396 46.0699 91.0735 45.7396C91.2729 45.4601 91.3928 45.044 91.3928 44.5564ZM89.3216 44.7563C89.3257 44.8702 89.3006 44.9832 89.2487 45.0846C89.1693 45.2439 88.9618 45.3073 88.6199 45.3073H86.1176V44.1647H88.5794C88.9148 44.1647 89.1385 44.2216 89.2487 44.4296C89.3054 44.5092 89.3216 44.6376 89.3216 44.7563ZM47.4364 55.092V52.0265H46.6909V55.0432C46.6909 55.7551 46.0233 56.1598 45.0606 56.1598C43.9229 56.1598 43.3638 55.7259 43.3638 55.0383V52.0265H42.6118V55.0123C42.6118 56.2687 43.5858 56.823 45.0298 56.823C46.5208 56.823 47.4364 56.2314 47.4364 55.092ZM52.7894 56.7628V56.0688H49.5352V52.0265H48.7832V56.7628H52.7894ZM57.063 52.7141V52.0265H52.0455V52.7141H54.175V56.7628H54.9335V52.7141H57.063ZM62.4111 53.3658C62.4227 53.0902 62.3534 52.8173 62.2117 52.5808C61.9897 52.2492 61.5619 52.0265 60.852 52.0265H57.7955V56.7628H58.5361V54.7653H60.69L62.0075 56.7628H62.8729L61.4468 54.6385C61.61 54.6219 61.767 54.5668 61.905 54.4779C62.043 54.3889 62.1581 54.2685 62.2409 54.1265C62.3631 53.8923 62.4218 53.63 62.4111 53.3658ZM61.6656 53.426C61.6657 53.5654 61.6364 53.7034 61.5797 53.8307C61.4824 54.0046 61.2604 54.0956 60.899 54.1021H58.541V52.7027H60.7613C61.2134 52.7027 61.4533 52.81 61.5797 53.0164C61.6348 53.1123 61.6656 53.2764 61.6656 53.426ZM64.5503 55.5926H67.4934L68.0946 56.7628H68.9017L66.5064 52.0265H65.6215L63.1501 56.7628H63.9377L64.5503 55.5926ZM67.1806 54.9229H64.8744L65.8306 53.1058L66.0413 52.6669L66.252 53.1058L67.1806 54.9229ZM76.5316 56.311C76.718 56.0932 76.8023 55.786 76.8023 55.4528C76.8023 55.1391 76.7115 54.8254 76.5268 54.6336C76.3006 54.4256 76.0124 54.2982 75.7067 54.2712C75.8845 54.237 76.0433 54.138 76.1524 53.9932C76.3145 53.8063 76.4117 53.5056 76.4117 53.2033C76.4184 53.055 76.3952 52.9068 76.3434 52.7677C76.2916 52.6286 76.2123 52.5015 76.1102 52.3939C75.8882 52.1712 75.509 52.0265 74.9791 52.0265H71.8026V56.7628H75.214C75.8509 56.7628 76.2966 56.6003 76.5316 56.311ZM75.6354 53.3528C75.6403 53.4451 75.627 53.5374 75.5961 53.6245C75.5652 53.7115 75.5174 53.7915 75.4555 53.86C75.3405 53.9867 75.1476 54.042 74.9434 54.042H72.5368V52.6767H74.8056C75.0811 52.6767 75.2918 52.732 75.4377 52.8652C75.5019 52.9288 75.5525 53.0049 75.5865 53.0887C75.6204 53.1725 75.6371 53.2624 75.6354 53.3528ZM75.8753 55.851C75.7245 56.0201 75.4669 56.1046 75.0876 56.1046H72.5368V54.6986H75.1055C75.4539 54.6986 75.6954 54.7718 75.8396 54.9099C75.9025 54.9719 75.9516 55.0465 75.9837 55.1289C76.0159 55.2112 76.0302 55.2995 76.026 55.3878C76.026 55.5796 75.9838 55.7437 75.8753 55.851ZM82.2638 56.7628V56.0688H78.5947V54.7165H82.1179V54.029H78.5931V52.7141H82.22V52.0265H77.8589V56.7628H82.2638ZM88.1418 55.3634C88.1418 54.5897 87.6313 54.1932 86.3737 54.0469C86.163 54.0176 85.706 53.9689 85.458 53.9396C84.2912 53.7998 83.9363 53.6438 83.9363 53.2391C83.9363 52.8473 84.3268 52.623 85.5067 52.623C86.4207 52.623 86.8907 52.8051 87.1257 53.1302C87.1849 53.2156 87.2258 53.3125 87.2456 53.4146H88.0511C88.0225 53.2441 87.9679 53.0791 87.889 52.9254C87.5649 52.3646 86.8972 51.9599 85.5067 51.9599C83.8455 51.9534 83.16 52.5564 83.16 53.3057C83.16 54.0534 83.6948 54.4337 85.0853 54.5962C85.3268 54.6271 85.753 54.6759 85.9637 54.6986C87.0414 54.8319 87.3785 54.9944 87.3785 55.4463C87.3785 55.864 86.9928 56.1663 85.7579 56.1663C84.7482 56.1663 84.2069 55.9843 83.9914 55.6348C83.9256 55.5293 83.8861 55.4095 83.8763 55.2854H83.0822C83.0982 55.5092 83.1617 55.727 83.2686 55.9242C83.5814 56.4979 84.3155 56.8295 85.7352 56.8295C87.432 56.8295 88.1418 56.2801 88.1418 55.3634ZM93.5369 52.7141V52.0265H88.5194V52.7141H90.6489V56.7628H91.4074V52.7141H93.5369ZM40.4823 60.8799C40.4823 60.3972 40.3851 60.0705 40.223 59.8234C39.9961 59.4675 39.5488 59.2805 38.7725 59.2805H35.7906V64.0168H36.5361V62.4727H38.7434C39.4727 62.4662 39.9702 62.2972 40.2344 61.912C40.4045 61.6763 40.4823 61.3382 40.4823 60.8799ZM39.7239 60.8799C39.7239 61.1204 39.6996 61.3025 39.6218 61.4228C39.484 61.6454 39.2004 61.7852 38.617 61.7852H36.5345V59.9567H38.6413C39.1891 59.9567 39.471 60.0835 39.6218 60.3305C39.6931 60.4394 39.7239 60.6393 39.7239 60.8799ZM45.9276 64.0168V63.3228H42.2569V61.9721H45.7834V61.2846H42.2569V59.9681H45.8855V59.2805H41.5228V64.0168H45.9276ZM51.6663 60.6198C51.6781 60.3449 51.6094 60.0726 51.4686 59.8364C51.2465 59.5032 50.8187 59.2805 50.1072 59.2805H47.0524V64.0168H47.793V62.0209H49.9468L51.2644 64.0168H52.1298L50.7036 61.8941C50.867 61.8773 51.0241 61.822 51.1621 61.7328C51.3001 61.6435 51.4151 61.5228 51.4977 61.3805C51.6192 61.1461 51.6774 60.8838 51.6663 60.6198ZM50.9208 60.68C50.9217 60.8199 50.8929 60.9584 50.8365 61.0863C50.7393 61.2602 50.5173 61.3512 50.1559 61.3561H47.7978V59.9567H50.0181C50.4703 59.9567 50.7101 60.0656 50.8365 60.2704C50.8959 60.3985 50.9248 60.5387 50.9208 60.68ZM57.2445 59.9697V59.2805H53.0454V64.0168H53.7909V62.0014H57.0889V61.296H53.7893V59.9681H57.2429L57.2445 59.9697ZM60.6689 59.196C59.6641 59.196 58.9721 59.4431 58.4794 59.9632C58.0645 60.3663 57.883 60.9287 57.883 61.6341C57.883 62.4061 58.118 62.9864 58.5507 63.3781C59.0142 63.8429 59.7241 64.0835 60.6689 64.0835C61.6445 64.0835 62.403 63.8429 62.8535 63.3537C63.2441 62.9555 63.4483 62.3882 63.4483 61.6276C63.4483 60.8913 63.2749 60.3305 62.8584 59.9323C62.3835 59.4382 61.6721 59.196 60.6689 59.196ZM60.6689 63.4073C60.0077 63.4073 59.5377 63.2627 59.1828 62.9734C58.8214 62.6775 58.648 62.2257 58.648 61.6454C58.648 61.1026 58.7987 60.6507 59.0855 60.3777C59.4178 60.0656 59.9234 59.8787 60.6624 59.8787C61.4273 59.8787 61.9022 60.0591 62.2571 60.3728C62.5585 60.6377 62.6898 61.1091 62.6898 61.6406C62.6898 62.1769 62.5521 62.6353 62.2458 62.9132C61.8892 63.2448 61.3917 63.4073 60.6689 63.4073ZM69.0929 60.6198C69.1047 60.3449 69.036 60.0726 68.8952 59.8364C68.6716 59.5032 68.2453 59.2805 67.5339 59.2805H64.479V64.0168H65.2196V62.0209H67.3734L68.691 64.0168H69.5564L68.1303 61.8941C68.2936 61.8773 68.4507 61.822 68.5887 61.7328C68.7267 61.6435 68.8417 61.5228 68.9244 61.3805C69.046 61.1461 69.1041 60.8838 69.0929 60.6198ZM68.3474 60.68C68.3483 60.8199 68.3196 60.9584 68.2632 61.0863C68.1659 61.2602 67.9439 61.3512 67.5825 61.3561H65.2245V59.9567H67.4447C67.8969 59.9567 68.1368 60.0656 68.2632 60.2704C68.3166 60.3679 68.3474 60.5304 68.3474 60.68ZM76.2901 64.0168V59.2805H75.3145L73.3714 63.1782L71.4639 59.2805H70.4721V64.0168H71.1884V60.3728L72.9695 64.0168H73.7506L75.5738 60.3728V64.0168H76.2901ZM78.4034 62.8466H81.3449L81.9461 64.0168H82.7532L80.3579 59.2805H79.4731L77 64.0168H77.7892L78.4034 62.8466ZM81.0321 62.1769H78.7276L79.6837 60.3614L79.8944 59.9209L80.1051 60.3598L81.0321 62.1769ZM88.1726 64.0168V59.2805H87.4563V62.962L84.3285 59.2805H83.4809V64.0168H84.2085V60.3126L87.3607 64.0185L88.1726 64.0168ZM94.6632 62.2501H93.8805C93.8591 62.4714 93.7683 62.6802 93.6212 62.8466C93.297 63.2269 92.7801 63.3895 91.9859 63.3895C91.3182 63.3895 90.6019 63.2025 90.2584 62.7133C90.0785 62.4858 89.9634 62.1477 89.9634 61.6406C89.9634 61.1871 90.0428 60.849 90.2162 60.6198C90.5047 60.1566 91.1124 59.9144 91.9681 59.9144C92.7979 59.9144 93.3213 60.1436 93.5985 60.4638C93.7526 60.6299 93.8492 60.8413 93.874 61.0668H94.6567C94.6319 60.7655 94.5327 60.475 94.3683 60.2216C93.9826 59.6495 93.2727 59.1976 91.973 59.1976C90.7348 59.1976 89.9942 59.5942 89.5842 60.1924C89.32 60.5353 89.1871 61.0181 89.1871 61.6341C89.1871 62.3216 89.3508 62.8287 89.6328 63.1847C90.0428 63.7454 90.8304 64.0835 92.0216 64.0835C93.2435 64.0835 93.9712 63.7161 94.3326 63.131C94.5159 62.8705 94.6298 62.5672 94.6632 62.2501ZM100.047 64.0168V63.3228H96.3762V61.9721H99.9027V61.2846H96.3762V59.9681H100.005V59.2805H95.6421V64.0168H100.047ZM45.0249 68.7223L45.9244 71.5016H48.8367L46.4803 73.2164L47.3797 75.9941L45.0249 74.2778L42.6685 75.9941L43.568 73.2164L41.2132 71.5H44.1255L45.0249 68.7223ZM55.4116 68.7239L56.3305 71.5H59.3011L56.8977 73.2164L57.8166 75.9958L55.4116 74.2778L53.0082 75.9941L53.9271 73.2164L51.5237 71.5H54.4943L55.4116 68.7239ZM65.7171 68.7239L66.636 71.5H69.6067L67.2033 73.2164L68.1222 75.9958L65.7171 74.2778L63.3138 75.9941L64.2327 73.2164L61.8276 71.5H64.7999L65.7171 68.7239ZM76.0244 68.7239L76.9416 71.5H79.9123L77.5088 73.2164L78.4278 75.9958L76.0227 74.2778L73.6193 75.9941L74.5382 73.2164L72.1348 71.5H75.1055L76.0227 68.7223L76.0244 68.7239ZM86.411 68.7239L87.3104 71.5H90.2227L87.8663 73.2164L88.7658 75.9958L86.411 74.2778L84.0546 75.9941L84.9556 73.2164L82.5993 71.5H85.5115L86.411 68.7239ZM50.0716 21.8647L50.7522 23.9647H52.9531L51.172 25.2633L51.8527 27.3633L50.0716 26.0646L48.2905 27.3633L48.9712 25.2633L47.1885 23.9647H49.3925L50.0716 21.8647ZM57.9252 21.8614L58.6204 23.9614H60.8666L59.0483 25.2601L59.7435 27.36L57.9252 26.0614L56.1084 27.36L56.8021 25.2601L54.9853 23.9614H57.2315L57.9252 21.8614ZM65.7171 21.8614L66.4108 23.9614H68.6586L66.8402 25.2601L67.5339 27.36L65.7188 26.0614L63.9004 27.36L64.5941 25.2601L62.7773 23.9614H65.0235L65.7171 21.8614ZM73.5108 21.8614L74.2044 23.9614H76.4506L74.6339 25.2601L75.3275 27.36L73.5108 26.0614L71.6924 27.36L72.386 25.2601L70.5693 23.9614H72.8155L73.5108 21.8614ZM81.3627 21.8614L82.0434 23.9614H84.2442L82.4631 25.2601L83.1438 27.36L81.3627 26.0614L79.5816 27.36L80.2623 25.2601L78.4796 23.9614H80.6837L81.3627 21.8614Z" fill="white"></path><path fill-rule="evenodd" clip-rule="evenodd" d="M18.7125 59.66C15.7111 40.8221 24.4739 22.1824 42.0156 14.1775L42.1776 14.5351C24.811 22.4587 16.1211 40.9147 19.0999 59.5983C22.393 80.2696 39.0206 92.6663 59.3806 93.2628L59.3693 93.6545C38.8505 93.0531 22.0413 80.5459 18.7125 59.66Z" fill="white"></path><path d="M38.2118 18.9867C34.9706 19.0615 31.1751 20.8949 28.937 23.5572C30.7326 25.2297 33.6206 24.6121 35.6999 24.2691C38.6656 23.7815 41.821 22.8356 44.6214 21.4979C43.4708 19.0404 40.3689 18.938 38.2118 18.9867Z" fill="white"></path><path d="M35.6623 14.9748C33.7016 18.0468 31.4586 20.9282 28.9626 23.5811C26.8801 21.6193 28.1361 18.3555 28.9869 16.3255C30.5265 12.6473 34.2216 9.47455 38.0819 7.85244C39.1418 10.271 36.8405 13.1332 35.6623 14.9748ZM28.8314 27.3958C25.7943 28.4799 23.1867 31.5242 21.8772 34.5832C24.0602 35.6006 26.5414 34.1313 28.3565 33.1528C30.849 31.8087 33.3918 29.9557 35.3933 27.8086C33.5847 25.8956 30.8393 26.6806 28.8297 27.3974L28.8314 27.3958Z" fill="white"></path><path d="M25.1515 24.4002C24.4644 27.9133 23.3769 31.3355 21.9103 34.5994C19.3562 33.3918 19.4534 29.9314 19.562 27.7306C19.75 23.9711 21.8471 19.6851 24.7642 16.9626C26.5517 18.8838 25.5745 22.2206 25.1515 24.3986V24.4002ZM22.9896 38.2565C20.4614 40.2589 18.9283 43.9664 18.5734 47.2772C20.9654 47.5535 22.8778 45.3707 24.3007 43.8721C26.239 41.8323 28.0735 39.2723 29.2371 36.597C26.9569 35.3487 24.6362 36.9545 22.9896 38.2565Z" fill="white"></path><path d="M18.6067 36.5677C19.0585 40.1253 19.059 43.7259 18.6084 47.2837C15.8257 46.9407 14.902 43.5892 14.3574 41.4876C13.4175 37.8598 14.0479 33.1723 15.8808 29.6452C18.1724 30.9163 18.3199 34.3588 18.6084 36.5693L18.6067 36.5677ZM21.0036 50.1118C19.0038 53.0537 18.2988 57.66 19.1999 61.3642C21.8448 60.7368 23.1542 57.7331 24.2076 55.612C25.6079 52.7937 26.7893 49.5039 27.2139 46.2776C24.3454 45.6794 22.3228 48.1744 21.0053 50.1118H21.0036Z" fill="white"></path><path d="M15.7515 49.8147C17.3417 53.5181 18.5116 57.3891 19.2391 61.3547C16.2069 62.0098 14.0223 58.8143 12.755 56.6964C10.4974 52.9256 9.83783 47.6984 10.666 43.1897C13.4421 43.7472 14.8002 47.6107 15.7515 49.8147ZM22.4058 62.9053C21.3313 66.473 22.0768 71.3215 24.2533 74.6746C26.6438 73.1142 26.976 69.6782 27.3147 67.2142C27.7604 63.9634 27.9711 60.36 27.4168 56.989C24.3587 57.3791 23.1221 60.5225 22.4058 62.9053Z" fill="white"></path><path d="M17.0903 64.434C19.8216 67.5929 22.2336 71.0159 24.2907 74.6527C21.5211 76.3869 18.2733 74.0188 16.3026 72.343C12.8069 69.3686 10.538 64.317 10 59.5547C12.909 59.163 15.4729 62.5697 17.0903 64.434ZM28.0441 75.0476C28.2742 79.1988 30.971 83.5564 34.559 86.0351C36.2931 83.6556 35.2057 80.0099 34.6141 77.4646C33.82 74.0383 32.718 70.469 31.0812 67.3028C28.2256 68.816 27.8918 72.3122 28.0441 75.0476Z" fill="white"></path><path d="M23.2179 78.5552C27.1718 80.7744 30.9702 83.2616 34.5866 85.9993C32.4279 88.8502 28.1138 87.7125 25.4397 86.7958C20.7253 85.1818 16.523 80.925 14.3287 76.1951C17.1113 74.7583 20.9214 77.2744 23.2179 78.5552ZM39.1179 85.1899C41.4516 89.4614 46.7689 92.2472 51.7766 92.9185C52.3163 89.8141 48.9664 86.7389 47.1416 84.7267C44.5421 81.866 41.8324 78.8932 38.7954 76.4178C36.5216 79.0672 37.7257 82.6413 39.1179 85.1899Z" fill="white"></path><path d="M35.7843 90.6049C41.0903 91.1576 46.4837 91.954 51.7848 92.8723C51.2792 96.7895 45.0803 97.4234 42.2669 97.6542C36.4958 98.1271 30.0765 95.8012 25.6068 91.8841C27.827 89.2657 32.9596 90.3108 35.7843 90.6049ZM46.0024 10.8907C42.4403 11.9098 38.272 13.8423 36.2138 17.4116C39.951 17.002 43.6249 15.6692 47.2179 14.6518C51.2419 13.514 55.4799 12.6623 59.3759 11.0906C55.1087 9.37745 50.0783 9.72528 46.0024 10.8907Z" fill="white"></path><path fill-rule="evenodd" clip-rule="evenodd" d="M114.9 59.5983C117.877 40.9147 109.187 22.4587 91.8222 14.5351L91.9842 14.1775C109.526 22.1824 118.289 40.8221 115.286 59.66C111.959 80.5459 95.1493 93.0531 74.6305 93.6545L74.6192 93.2644C94.9792 92.6663 111.605 80.2696 114.9 59.5983Z" fill="white"></path><path d="M95.7877 18.9867C99.029 19.0615 102.823 20.8949 105.063 23.5572C103.267 25.2297 100.377 24.6121 98.2997 24.2691C95.3323 23.7815 92.177 22.8356 89.3781 21.4979C90.5288 19.0404 93.629 18.938 95.7877 18.9867Z" fill="white"></path><path d="M98.3373 14.9748C100.298 18.0465 102.54 20.9278 105.035 23.5811C107.119 21.6193 105.862 18.3555 105.011 16.3255C103.471 12.6473 99.778 9.47455 95.9161 7.85244C94.8562 10.271 97.1591 13.1332 98.3373 14.9748ZM105.17 27.3958C108.205 28.4799 110.813 31.5242 112.122 34.5832C109.939 35.6006 107.458 34.1313 105.643 33.1528C103.151 31.8087 100.608 29.9557 98.6079 27.8086C100.415 25.8956 103.16 26.679 105.17 27.3958Z" fill="white"></path><path d="M108.849 24.4002C109.536 27.9134 110.623 31.3356 112.09 34.5994C114.644 33.3918 114.547 29.9314 114.437 27.7306C114.25 23.9711 112.155 19.6851 109.236 16.9626C107.448 18.8838 108.426 22.2206 108.849 24.3986V24.4002ZM111.009 38.2565C113.539 40.2589 115.072 43.9664 115.427 47.2772C113.035 47.5535 111.122 45.3707 109.699 43.8721C107.761 41.8323 105.927 39.2723 104.763 36.597C107.043 35.3487 109.362 36.9545 111.009 38.2565Z" fill="white"></path><path d="M115.393 36.5677C114.941 40.1253 114.94 43.726 115.391 47.2837C118.174 46.9407 119.098 43.5892 119.642 41.4876C120.584 37.8598 119.952 33.1723 118.119 29.6452C115.827 30.9163 115.68 34.3572 115.393 36.5677ZM112.994 50.1118C114.996 53.0537 115.699 57.66 114.8 61.3642C112.155 60.7368 110.844 57.7331 109.79 55.612C108.392 52.7937 107.209 49.5039 106.786 46.2776C109.654 45.6794 111.677 48.1744 112.994 50.1118Z" fill="white"></path><path d="M118.248 49.8147C116.658 53.518 115.488 57.389 114.76 61.3547C117.793 62.0098 119.976 58.8143 121.245 56.6964C123.502 52.9256 124.16 47.6984 123.334 43.1897C120.557 43.7472 119.198 47.6107 118.248 49.8147ZM111.594 62.9053C112.668 66.473 111.923 71.3215 109.746 74.6746C107.356 73.1142 107.024 69.6782 106.685 67.2142C106.239 63.9634 106.028 60.36 106.583 56.989C109.641 57.3791 110.876 60.5225 111.594 62.9053Z" fill="white"></path><path d="M116.908 64.434C114.178 67.5935 111.767 71.0164 109.709 74.6527C112.477 76.3869 115.727 74.0188 117.697 72.343C121.191 69.3686 123.462 64.317 124 59.5547C121.091 59.163 118.527 62.5697 116.908 64.434ZM105.954 75.0476C105.724 79.1988 103.029 83.5564 99.441 86.0351C97.7069 83.6556 98.7943 80.0099 99.3842 77.4646C100.18 74.0383 101.282 70.469 102.919 67.3028C105.774 68.816 106.107 72.3122 105.954 75.0476Z" fill="white"></path><path d="M110.782 78.5552C106.828 80.7744 103.03 83.2615 99.4134 85.9993C101.572 88.8502 105.886 87.7125 108.56 86.7958C113.275 85.1818 117.477 80.925 119.671 76.1951C116.889 74.7583 113.079 77.2744 110.782 78.5552ZM94.8821 85.1899C92.5484 89.4614 87.2311 92.2472 82.2234 92.9185C81.6837 89.8141 85.0336 86.7389 86.86 84.7267C89.4579 81.866 92.166 78.8932 95.203 76.4178C97.4784 79.0672 96.2742 82.6413 94.8821 85.1899Z" fill="white"></path><path d="M98.214 90.6046C92.9097 91.1572 87.5163 91.9537 82.2136 92.872C82.7208 96.7891 88.9197 97.423 91.7331 97.6538C97.5042 98.1268 103.924 95.8009 108.392 91.8838C106.173 89.2653 101.04 90.3104 98.214 90.6046ZM87.9976 10.8903C91.5581 11.9094 95.728 13.842 97.7862 17.4113C94.049 17.0017 90.3751 15.6689 86.7821 14.6514C82.7581 13.5137 78.5201 12.662 74.6242 11.0902C78.8913 9.3771 83.9217 9.72493 87.9976 10.8903ZM69.315 9.0439L67.4885 5L65.6961 8.96914L61.5262 6.37506L64.2051 12.0232H70.8691L73.4508 6.37506L69.315 9.0439ZM70.8254 12.8993H64.1516V13.8875H70.8254V12.8993ZM67.965 89.3108L69.0411 92.6298H72.5206L69.7055 94.681L70.7816 98L67.965 95.9488L65.1499 98L66.226 94.681L63.411 92.6298H66.8905L67.965 89.3108Z" fill="white"></path></svg>