<svg xmlns="http://www.w3.org/2000/svg" width="96" height="96" viewBox="0 0 96 96" fill="none"><path d="M67.4622 61.9114C70.5593 61.4368 73.4965 60.4766 76.1937 59.1109L90.3749 60.375L89.1108 46.1938C91.1178 42.2297 92.2499 37.7473 92.2499 33C92.2499 16.8456 79.1541 3.75 62.9999 3.75C48.3629 3.75 36.2369 14.5013 34.0881 28.5377" stroke="black" stroke-miterlimit="2.6131"></path><path d="M35.625 66C35.625 65.3751 35.625 64.7499 35.625 64.125C35.625 60.4423 37.7289 59.0803 40.5099 56.691C42.1108 55.3157 43.125 53.2763 43.125 51C43.125 46.8579 39.7671 43.5 35.625 43.5C31.4829 43.5 28.125 46.8579 28.125 51" stroke="black" stroke-miterlimit="2.6131"></path><path d="M39.375 77.25H31.875" stroke="black" stroke-miterlimit="2.6131"></path><path fill-rule="evenodd" clip-rule="evenodd" d="M35.625 28.5C53.229 28.5 67.5 42.7708 67.5 60.375C67.5 77.9792 53.2292 92.25 35.625 92.25C30.4519 92.25 25.5669 91.0164 21.2471 88.8291L5.79338 90.2066L7.17094 74.7529C4.98375 70.4329 3.75 65.5481 3.75 60.3748C3.75 42.7708 18.0208 28.5 35.625 28.5Z" stroke="black" stroke-miterlimit="2.6131"></path></svg>