<svg xmlns="http://www.w3.org/2000/svg" width="96" height="96" viewBox="0 0 96 96" fill="none"><mask id="mask0_64_548" style="mask-type:luminance" maskUnits="userSpaceOnUse" x="0" y="0" width="96" height="96"><path d="M0 7.62939e-06H96V96H0V7.62939e-06Z" fill="white"></path></mask><g mask="url(#mask0_64_548)"><path d="M57.752 25.002C57.752 19.6171 53.3868 15.252 48.002 15.252C42.6171 15.252 38.252 19.6171 38.252 25.002C38.252 30.3868 42.6171 34.752 48.002 34.752C53.3868 34.752 57.752 30.3868 57.752 25.002Z" stroke="black" stroke-miterlimit="10" stroke-linecap="round" stroke-linejoin="round"></path><path d="M52.877 15.252V1.87702H43.127V15.252" stroke="black" stroke-miterlimit="10" stroke-linecap="round" stroke-linejoin="round"></path><path d="M48 34.7508L25.0119 81.8062C23.7392 84.4115 20.5953 85.4917 17.9902 84.2189C15.3849 82.9462 14.3047 79.8025 15.5775 77.1972L39.1147 29.0176" stroke="black" stroke-miterlimit="10" stroke-linecap="round" stroke-linejoin="round"></path><path d="M12.9395 94.123L17.9686 84.2088" stroke="black" stroke-miterlimit="10" stroke-linecap="round" stroke-linejoin="round"></path><path d="M61.6014 38.6719L56.885 29.0177" stroke="black" stroke-miterlimit="10" stroke-linecap="round" stroke-linejoin="round"></path><path d="M48 34.7511L68.6837 77.0894C69.9564 79.6947 73.1001 80.7749 75.7054 79.5021C78.3105 78.2294 79.3907 75.0857 78.1179 72.4804L69.0097 53.8364" stroke="black" stroke-miterlimit="10" stroke-linecap="round" stroke-linejoin="round"></path><path d="M83.0606 94.123L75.7053 79.6231" stroke="black" stroke-miterlimit="10" stroke-linecap="round" stroke-linejoin="round"></path><path d="M35.7207 61.127H60.2832" stroke="black" stroke-miterlimit="10" stroke-linecap="round" stroke-linejoin="round"></path><path d="M72.5713 61.127H84.0017" stroke="black" stroke-miterlimit="10" stroke-linecap="round" stroke-linejoin="round"></path><path d="M23.4284 61.127H11.998" stroke="black" stroke-miterlimit="10" stroke-linecap="round" stroke-linejoin="round"></path><path d="M48.002 55.9395V66.3145" stroke="black" stroke-miterlimit="10" stroke-linecap="round" stroke-linejoin="round"></path><path d="M69.26 84.1875C69.26 86.4656 71.1069 88.3125 73.385 88.3125C75.6631 88.3125 77.51 86.4656 77.51 84.1875C77.51 81.9094 75.6631 80.0625 73.385 80.0625C71.1069 80.0625 69.26 81.9094 69.26 84.1875Z" stroke="black" stroke-miterlimit="10" stroke-linecap="round" stroke-linejoin="round"></path></g></svg>