<svg xmlns="http://www.w3.org/2000/svg" width="137" height="34" viewBox="0 0 137 34" fill="none"><g clip-path="url(#clip0_171_430)"><path d="M3.51605 7.17385C4.56225 7.17385 5.40981 6.83066 6.05872 6.14759C6.70764 5.46119 7.03209 4.61153 7.03209 3.58859C7.03209 2.60231 6.70764 1.75598 6.05872 1.05292C5.40981 0.349863 4.56225 0 3.51605 0C2.50295 0 1.66201 0.349863 0.996544 1.05292C0.331078 1.75265 0 2.59898 0 3.58526C0 4.60486 0.331078 5.45786 0.996544 6.14426C1.66201 6.83066 2.50295 7.17385 3.51605 7.17385Z" fill="#E84C4E"></path><path d="M67.9501 11.4055C66.255 10.4026 64.2983 9.89945 62.0834 9.89945C59.8354 9.89945 57.7893 10.4326 55.9552 11.5022C54.1177 12.5717 52.6676 14.0045 51.6081 15.8071C50.5453 17.6098 50.0156 19.6556 50.0156 21.9514C50.0156 24.2805 50.5619 26.3497 51.6545 28.169C52.747 29.9849 54.2269 31.4143 56.0975 32.4473C57.9648 33.4835 60.1036 34 62.5105 34C64.3778 34 66.1126 33.6668 67.715 32.9971C69.3141 32.3273 70.6683 31.341 71.7774 30.0316L68.119 26.3497C67.4237 27.146 66.5993 27.7458 65.6491 28.1423C64.6989 28.5421 63.6362 28.7387 62.4641 28.7387C61.1663 28.7387 60.0241 28.4588 59.0441 27.9024C58.0608 27.3459 57.3093 26.5463 56.7862 25.51C56.5809 25.1002 56.4253 24.6537 56.3028 24.1872L73.0619 24.1439C73.1878 23.6007 73.2772 23.1176 73.3235 22.6844C73.3699 22.2546 73.3963 21.8314 73.3963 21.4183C73.3963 19.2191 72.913 17.2499 71.9462 15.5139C70.9762 13.7813 69.6452 12.4085 67.9501 11.4055ZM56.2995 19.5024C56.4154 19.0759 56.5511 18.666 56.7365 18.2895C57.2265 17.2866 57.9317 16.5035 58.8521 15.9471C59.7692 15.3906 60.8485 15.1107 62.0834 15.1107C63.2554 15.1107 64.2453 15.3573 65.0532 15.8505C65.861 16.3436 66.4801 17.0533 66.9072 17.9796C67.1125 18.4228 67.2747 18.9226 67.3939 19.469L56.2995 19.5024Z" fill="black"></path><path d="M0.380859 34H6.65147V17.2166L0.380859 10.9024V34Z" fill="black"></path><path d="M25.8902 11.6921C24.5592 10.8491 23.0561 10.4259 21.3776 10.4259C19.6361 10.4259 18.0767 10.8091 16.6961 11.5721C15.9479 11.9886 15.2957 12.4984 14.7229 13.0882V17.1633L8.50526 10.9024H8.50195V34H14.7262V20.7552C14.7262 19.8322 14.9249 19.0192 15.3188 18.3162C15.7161 17.6164 16.2624 17.0733 16.9577 16.6901C17.6529 16.3069 18.4475 16.117 19.3348 16.117C20.6955 16.117 21.8047 16.5468 22.6622 17.4098C23.5163 18.2695 23.9467 19.3857 23.9467 20.7585V34.0033H30.171V19.3657C30.171 17.803 29.7903 16.3469 29.0321 14.9908C28.2673 13.638 27.2211 12.5384 25.8902 11.6921Z" fill="black"></path><path d="M115.861 21.9014C115.861 19.639 115.321 17.6064 114.245 15.8038C113.169 14.0045 111.703 12.5684 109.849 11.4988C107.994 10.4292 105.895 9.89612 103.551 9.89612C101.618 9.89612 99.8334 10.286 98.1946 11.0523V19.2291C98.2674 19.0625 98.3336 18.8959 98.4197 18.7393C98.9263 17.8163 99.6248 17.09 100.509 16.5635C101.396 16.037 102.409 15.7738 103.551 15.7738C104.723 15.7738 105.753 16.037 106.64 16.5635C107.528 17.09 108.223 17.8163 108.729 18.7393C109.236 19.6656 109.491 20.7319 109.491 21.9447C109.491 23.1576 109.246 24.2338 108.756 25.1735C108.263 26.1131 107.567 26.8461 106.667 27.3726C105.763 27.8991 104.727 28.1623 103.555 28.1623C102.416 28.1623 101.399 27.8991 100.512 27.3726C99.6248 26.8461 98.9263 26.1131 98.423 25.1735C97.9165 24.2338 97.6616 23.1576 97.6616 21.9447C97.6616 20.9418 97.847 20.0421 98.1946 19.2358L93.6721 14.6842C93.4006 15.0408 93.1456 15.4106 92.9106 15.8005C91.8346 17.6031 91.2949 19.6356 91.2949 21.8981C91.2949 24.1605 91.8412 26.2097 92.9338 28.0423C94.0263 29.875 95.4996 31.3277 97.3536 32.394C99.2077 33.4635 101.29 33.9967 103.601 33.9967C105.912 33.9967 107.998 33.4635 109.849 32.394C111.703 31.3277 113.166 29.875 114.245 28.0423C115.321 26.2131 115.861 24.1672 115.861 21.9014Z" fill="black"></path><path d="M90.4835 10.9757C89.5962 10.6092 88.5997 10.4259 87.4906 10.4259C84.9247 10.4259 82.9614 11.2456 81.6007 12.8883C81.5841 12.9083 81.5709 12.9316 81.5543 12.9516L81.5444 17.1599L75.3301 10.9057V34.0033H81.5543V21.2317C81.5543 19.509 81.9748 18.2262 82.8124 17.3832C83.6501 16.5402 84.736 16.117 86.0669 16.117C86.6993 16.117 87.2621 16.2136 87.7521 16.4036C88.2421 16.5935 88.6626 16.88 89.0102 17.2632L92.907 12.7683C92.1786 11.9387 91.3708 11.3422 90.4835 10.9757Z" fill="black"></path><path d="M43.4176 7.55704L37.1933 1.29283V10.9024H31.8232V16.4036H37.1933V34H43.4176V16.4036H48.7844V10.9024H43.4176V7.55704Z" fill="black"></path><path d="M128.816 22.1247L133.699 15.0608L129.58 10.9124L125.24 17.6697L120.797 10.9024H113.43L121.33 22.1913L112.957 34H119.989L124.892 26.5596L129.68 34H137L128.816 22.1247Z" fill="black"></path></g><defs><clipPath id="clip0_171_430"><rect width="137" height="34" fill="white"></rect></clipPath></defs></svg>