<svg xmlns="http://www.w3.org/2000/svg" width="96" height="96" viewBox="0 0 96 96" fill="none"><path d="M66.2326 61.0148L34.6754 29.7848C31.2273 26.3725 31.2273 20.84 34.6754 17.4275L45.62 6.59634C49.0681 3.18403 54.6586 3.18403 58.1068 6.59634L89.664 37.8263C93.1121 41.2387 93.1121 46.7712 89.664 50.1837L78.7194 61.0148C75.2713 64.4272 69.6808 64.4272 66.2326 61.0148Z" stroke="black" stroke-miterlimit="10" stroke-linecap="round" stroke-linejoin="round"></path><path d="M84.746 56.1478L89.1429 60.4991C92.591 63.9114 92.591 69.444 89.1429 72.8565L79.7553 82.1466C76.3072 85.5589 70.7167 85.5589 67.2685 82.1466L40.2953 55.4531L30.1782 65.4654" stroke="black" stroke-miterlimit="10" stroke-linecap="round" stroke-linejoin="round"></path><path d="M32.8662 75.8125L36.092 72.5519L22.9527 59.2705L6.47148 75.9301C2.84317 79.5976 2.84317 85.544 6.47148 89.2115C10.0998 92.8791 15.9824 92.8791 19.6107 89.2115L19.6527 89.1691" stroke="black" stroke-miterlimit="10" stroke-linecap="round" stroke-linejoin="round"></path></svg>