<svg xmlns="http://www.w3.org/2000/svg" width="96" height="96" viewBox="0 0 96 96" fill="none"><path d="M2.8125 25.3135V81.937V87.562" stroke="black" stroke-miterlimit="10" stroke-linecap="round" stroke-linejoin="round"></path><path d="M8.4375 81.937H14.0625V15.9385H8.4375C5.33081 15.9385 2.8125 18.4568 2.8125 21.5635V81.9372" stroke="black" stroke-miterlimit="10" stroke-linecap="round" stroke-linejoin="round"></path><path d="M35.9944 25.3125H14.25" stroke="black" stroke-miterlimit="10" stroke-linecap="round" stroke-linejoin="round"></path><path d="M93.1875 25.3135V81.937V87.562" stroke="black" stroke-miterlimit="10" stroke-linecap="round" stroke-linejoin="round"></path><path d="M87.5625 81.937H81.9375V15.9385H87.5625C90.6692 15.9385 93.1875 18.4568 93.1875 21.5635V81.9372" stroke="black" stroke-miterlimit="10" stroke-linecap="round" stroke-linejoin="round"></path><path d="M14.0625 81.9375H8.4375C6.885 81.9375 5.47875 82.5675 4.46063 83.5856C3.4425 84.6019 2.8125 86.0081 2.8125 87.5625C2.8125 90.6675 5.33063 93.1875 8.4375 93.1875H63.93H87.5625C90.6694 93.1875 93.1875 90.6675 93.1875 87.5625C93.1875 86.0081 92.5575 84.6019 91.5394 83.5856C90.5212 82.5675 89.115 81.9375 87.5625 81.9375H81.9375" stroke="black" stroke-miterlimit="10" stroke-linecap="round" stroke-linejoin="round"></path><path d="M81.7501 25.3125H59.926" stroke="black" stroke-miterlimit="10" stroke-linecap="round" stroke-linejoin="round"></path><path d="M54.3551 81.75H41.6449C38.9415 81.75 36.75 79.5585 36.75 76.8551V19.6875L48 2.8125L59.25 19.6875V76.8551C59.25 79.5585 57.0585 81.75 54.3551 81.75Z" stroke="black" stroke-miterlimit="10" stroke-linecap="round" stroke-linejoin="round"></path><path d="M59.25 19.6875H36.75" stroke="black" stroke-miterlimit="10" stroke-linecap="round" stroke-linejoin="round"></path><path d="M36.75 68.625H59.25" stroke="black" stroke-miterlimit="10" stroke-linecap="round" stroke-linejoin="round"></path><path d="M48 67.6875V20.1836" stroke="black" stroke-miterlimit="10" stroke-linecap="round" stroke-linejoin="round"></path></svg>